<?xml version="1.0" encoding="UTF-8" standalone="no"?>
<!-- Created with Inkscape (http://www.inkscape.org/) -->

<svg
   version="1.1"
   id="svg1"
   width="611.53961"
   height="187.77519"
   viewBox="0 0 611.53961 187.77519"
   xmlns="http://www.w3.org/2000/svg"
   xmlns:svg="http://www.w3.org/2000/svg">
  <defs
     id="defs1">
    <clipPath
       clipPathUnits="userSpaceOnUse"
       id="clipPath222">
      <path
         d="M 0,0 H 2481.25 V 3509.375 H 0 Z"
         transform="matrix(0.31999999,0,0,0.31999999,-233.543,-551.35755)"
         clip-rule="evenodd"
         id="path222" />
    </clipPath>
    <clipPath
       clipPathUnits="userSpaceOnUse"
       id="clipPath224">
      <path
         d="M 0,0 H 2481.25 V 3509.375 H 0 Z"
         transform="matrix(0.31396375,0,0,0.31396375,-229.13762,-617.94732)"
         clip-rule="evenodd"
         id="path224" />
    </clipPath>
    <clipPath
       clipPathUnits="userSpaceOnUse"
       id="clipPath226">
      <path
         d="m 271.10764,1451.1416 h 390.62503 v 606.25 H 271.10764 Z"
         transform="matrix(3.1772709,0,0,3.1772709,-861.37805,-4610.6945)"
         clip-rule="evenodd"
         id="path226" />
    </clipPath>
    <clipPath
       clipPathUnits="userSpaceOnUse"
       id="clipPath228">
      <path
         d="M 0,0 H 2481.25 V 3509.375 H 0 Z"
         transform="matrix(0.51832625,0,0,0.51832625,-907.2524,-980.08539)"
         clip-rule="evenodd"
         id="path228" />
    </clipPath>
  </defs>
  <g
     id="g216"
     transform="translate(-20440.937,-477.49488)">
    <g
       id="g220" />
    <path
       id="path221"
       d="M 5.4692103,0.00182037 V -53.404432 H 22.766086 c 6.5625,0 10.835938,0.265625 12.828126,0.796875 3.03125,0.804688 5.578125,2.546875 7.640625,5.234375 2.070312,2.679688 3.109375,6.132813 3.109375,10.359376 0,2.824219 -0.4375,5.261719 -1.3125,7.3125 -0.875,2.054688 -2.117188,3.796875 -3.71875,5.234375 -1.605469,1.429688 -3.5,2.507813 -5.6875,3.234375 -2.187501,0.730469 -6.304688,1.093751 -12.343751,1.093751 H 16.172336 V 0.00182037 Z M 16.172336,-44.404431 v 15.15625 h 5.90625 c 4.269531,0 7.113282,-0.269531 8.53125,-0.8125 1.425782,-0.550781 2.550782,-1.421875 3.375,-2.609375 0.832032,-1.195313 1.250001,-2.597656 1.250001,-4.203125 0,-1.9375 -0.578125,-3.523438 -1.734376,-4.765625 -1.15625,-1.238282 -2.59375,-2.03125 -4.3125,-2.375 -1.292969,-0.257813 -3.882812,-0.390625 -7.765625,-0.390625 z M 67.215307,0.00182037 V -44.404431 H 51.324681 v -9.000001 h 42.453127 v 9.000001 H 77.965307 V 0.00182037 Z m 54.460943,0 V -53.404432 h 10.75 v 23.718751 l 21.78125,-23.718751 h 14.53125 l -20.14063,20.796876 21.20313,32.60937637 h -13.95313 l -14.71875,-25.06250137 -8.70312,8.953126 V 0.00182037 Z m 101.81641,0 h -11.6875 l -4.625,-12.17187537 H 185.75828 L 181.35203,0.00182037 H 169.94578 L 190.74266,-53.404432 h 11.4375 z m -19.8125,-21.12500137 -7.32813,-19.828125 -7.25,19.828125 z M 229.35984,0.00182037 V -53.404432 h 10.50001 l 21.85937,35.671877 v -35.671877 h 10.01563 V 0.00182037 h -10.8125 L 239.34422,-34.826306 V 0.00182037 Z m 53.41016,0 V -53.404432 h 10.82813 V 0.00182037 Z m 18.3711,-17.37500037 10.48437,-1.0625 c 0.60157,3.554687 1.875,6.164062 3.8125,7.828125 1.94532,1.65625 4.5625,2.484375 7.84375,2.484375 3.47657,0 6.10157,-0.734375 7.875,-2.203125 1.76954,-1.46875 2.65625,-3.195313 2.65625,-5.1875 0,-1.238282 -0.38281,-2.304688 -1.14062,-3.203125 -0.75,-0.90625 -2.03125,-1.6875 -3.84375,-2.343751 -1.3125,-0.4375 -4.20313,-1.203125 -8.67188,-2.296875 -5.78125,-1.425781 -9.83984,-3.1875 -12.17187,-5.28125 -3.28125,-2.9375 -4.92188,-6.515625 -4.92188,-10.734375 0,-2.75 0.76953,-5.304688 2.3125,-7.671876 1.53907,-2.375 3.76953,-4.175781 6.6875,-5.40625 2.91407,-1.238281 6.41016,-1.859375 10.48438,-1.859375 6.70703,0 11.75391,1.46875 15.14062,4.40625 3.38282,2.9375 5.17579,6.859376 5.375,11.765626 l -10.8125,0.46875 c -0.46875,-2.738282 -1.46484,-4.703125 -2.98437,-5.890625 -1.51172,-1.195313 -3.78906,-1.796876 -6.82813,-1.796876 -2.66797,0 -4.84375,0.460938 -6.53125,1.375001 -1.6875,0.90625 -2.53125,2.1875 -2.53125,3.84375 0,1.242187 0.54688,2.308594 1.64063,3.203125 1.33203,1.136719 4.61719,2.335937 9.85937,3.59375 5.25,1.25 9.12891,2.53125 11.64063,3.84375 2.51953,1.304688 4.48828,3.117188 5.90625,5.4375 1.42578,2.324219 2.14062,5.171876 2.14062,8.546876 0,3.03125 -0.85546,5.8828125 -2.5625,8.5468751 -1.69921,2.6562501 -4.10546,4.6484377 -7.21875,5.96875023 -3.10546,1.32031256 -6.96484,1.98437508 -11.57812,1.98437508 -13.33594,0 -20.6875,-6.11718771 -22.0625,-18.35937541 z M 353.26219,0.00182037 V -53.404432 h 10.82813 V 0.00182037 Z M 374.28954,-53.404432 h 10.75 v 28.921876 c 0,4.593751 0.15625,7.585938 0.46875,8.968751 0.4375,2.136719 1.51953,3.882812 3.25,5.234375 1.73828,1.34375 4.10156,2.015625 7.09375,2.015625 3.08203,0 5.39453,-0.6328125 6.9375,-1.90625 1.53906,-1.28125 2.47266,-2.820313 2.79687,-4.625 0.33204,-1.8125 0.5,-4.832032 0.5,-9.062501 v -29.546876 h 10.82813 v 28.046876 c 0,6.417969 -0.30469,10.953126 -0.90625,13.609376 -0.59375,2.65625 -1.67188,4.8984376 -3.23438,6.7187502 -1.5625,1.8242188 -3.65234,3.2734376 -6.26562,4.34375014 -2.61719,1.06250005 -6.03125,1.59375007 -10.25,1.59375007 -5.125,0 -9.00781,-0.58984377 -11.64063,-1.76562507 -2.63672,-1.17578134 -4.71484,-2.70312514 -6.23437,-4.57812524 -1.52344,-1.8828125 -2.53906,-3.8476564 -3.04688,-5.8906251 -0.69922,-3.082031 -1.04687,-7.613282 -1.04687,-13.593751 z m 51.22266,36.031252 10.48437,-1.0625 c 0.60156,3.554687 1.875,6.164062 3.8125,7.828125 1.94531,1.65625 4.5625,2.484375 7.84375,2.484375 3.47657,0 6.10157,-0.734375 7.875,-2.203125 1.76953,-1.46875 2.65625,-3.195313 2.65625,-5.1875 0,-1.238282 -0.38281,-2.304688 -1.14062,-3.203125 -0.75,-0.90625 -2.03125,-1.6875 -3.84375,-2.343751 -1.3125,-0.4375 -4.20313,-1.203125 -8.67188,-2.296875 -5.78125,-1.425781 -9.83984,-3.1875 -12.17187,-5.28125 -3.28125,-2.9375 -4.92188,-6.515625 -4.92188,-10.734375 0,-2.75 0.76953,-5.304688 2.3125,-7.671876 1.53906,-2.375 3.76953,-4.175781 6.6875,-5.40625 2.91406,-1.238281 6.41016,-1.859375 10.48438,-1.859375 6.70703,0 11.7539,1.46875 15.14062,4.40625 3.38282,2.9375 5.17578,6.859376 5.375,11.765626 l -10.8125,0.46875 c -0.46875,-2.738282 -1.46484,-4.703125 -2.98437,-5.890625 -1.51172,-1.195313 -3.78906,-1.796876 -6.82813,-1.796876 -2.66797,0 -4.84375,0.460938 -6.53125,1.375001 -1.6875,0.90625 -2.53125,2.1875 -2.53125,3.84375 0,1.242187 0.54688,2.308594 1.64063,3.203125 1.33203,1.136719 4.61718,2.335937 9.85937,3.59375 5.25,1.25 9.12891,2.53125 11.64063,3.84375 2.51953,1.304688 4.48828,3.117188 5.90625,5.4375 1.42578,2.324219 2.14062,5.171876 2.14062,8.546876 0,3.03125 -0.85547,5.8828125 -2.5625,8.5468751 -1.69922,2.6562501 -4.10547,4.6484377 -7.21875,5.96875023 -3.10547,1.32031256 -6.96484,1.98437508 -11.57812,1.98437508 -13.33594,0 -20.6875,-6.11718771 -22.0625,-18.35937541 z m 0,0"
       style="fill:#1f438c;fill-opacity:1;fill-rule:nonzero;stroke:none"
       aria-label="PT KANISIUS"
       transform="translate(20583.543,561.79753)"
       clip-path="url(#clipPath222)" />
    <g
       id="g222" />
    <path
       id="path223"
       d="M 14.732833,2.0867095e-4 H 4.4922182 V -44.856139 H 16.986382 l 14.088511,26.919941 h 1.287742 V -44.856139 H 42.61858 V 2.0867095e-4 H 30.124417 L 16.020575,-26.919732 H 14.732833 Z M 66.522292,0.64407969 c -3.250016,0 -6.178096,-0.73585259 -8.78424,-2.20755779 -2.606145,-1.4793703 -4.6604,-3.51063 -6.162766,-6.0861141 -1.4947,-2.5831488 -2.238218,-5.4805688 -2.238218,-8.6922588 0,-3.19636 0.743518,-6.089947 2.238218,-8.676928 1.502366,-2.58315 3.556621,-4.614409 6.162766,-6.086114 2.606144,-1.479371 5.534224,-2.222888 8.78424,-2.222888 3.066052,0 5.87149,0.73202 8.416314,2.192227 2.544823,1.452542 4.54159,3.449309 5.994132,5.994133 1.44871,2.537158 2.176898,5.342596 2.176898,8.416314 0,1.157434 -0.107312,2.222888 -0.321936,3.204024 H 58.949142 c 0.25295,1.801306 1.088449,3.307504 2.498833,4.5224277 1.410384,1.2187559 3.100546,1.8243012 5.074317,1.8243012 1.44871,0 2.686628,-0.2759447 3.709923,-0.8278341 1.019463,-0.5595546 1.785976,-1.138272 2.29954,-1.7323197 h 9.750046 c -0.429247,1.4525424 -1.287742,2.9702384 -2.575484,4.5530879 -1.280076,1.5751845 -3.043057,2.9395778 -5.28894,4.0931801 -2.238218,1.15360219 -4.871191,1.73231959 -7.895085,1.73231959 z m 7.03659,-19.99066169 c -0.256782,-1.797474 -1.027127,-3.296007 -2.314869,-4.491767 -1.280077,-1.195761 -2.851429,-1.793641 -4.721721,-1.793641 -2.01593,0 -3.686928,0.59788 -5.012996,1.793641 -1.318402,1.19576 -2.173065,2.694293 -2.560154,4.491767 z M 95.730274,2.0867095e-4 H 85.029751 L 95.929567,-16.663786 85.612301,-32.68391 h 10.639202 l 5.626207,9.167496 h 1.28774 l 5.64154,-9.167496 h 10.70052 L 109.19024,-16.663786 120.09006,2.0867095e-4 H 109.37421 L 103.16545,-9.8111592 h -1.28774 z m 40.310926,0 c -3.11971,0 -5.48824,-0.76651311095 -7.11324,-2.29953937095 -1.62501,-1.5406913 -2.43751,-3.7444165 -2.43751,-6.607343 V -23.516414 h -5.13564 v -9.167496 h 5.13564 v -10.117974 h 9.67339 v 10.117974 h 7.37386 v 9.167496 h -7.37386 v 12.555485 c 0,0.820169 0.16863,1.4027192 0.5059,1.7476501 0.34493,0.3372657 0.92365,0.5058986 1.73232,0.5058986 h 5.13564 V 2.0867095e-4 Z M 165.84323,0.64407969 c -3.25002,0 -6.1781,-0.73585259 -8.78424,-2.20755779 -2.60615,-1.4793703 -4.6604,-3.51063 -6.16277,-6.0861141 -1.4947,-2.5831488 -2.23822,-5.4805688 -2.23822,-8.6922588 0,-3.19636 0.74352,-6.089947 2.23822,-8.676928 1.50237,-2.58315 3.55662,-4.614409 6.16277,-6.086114 2.60614,-1.479371 5.53422,-2.222888 8.78424,-2.222888 3.15803,0 5.88682,0.666866 8.18636,1.992934 2.3072,1.3299 4.12384,3.012396 5.44224,5.043656 1.32607,2.023595 2.18456,4.146836 2.57549,6.362059 h -9.79604 c -0.39092,-1.195761 -1.09995,-2.226721 -2.13091,-3.096713 -1.02329,-0.877658 -2.44901,-1.318403 -4.27714,-1.318403 -2.09641,0 -3.8594,0.74735 -5.28894,2.238218 -1.43338,1.494701 -2.14624,3.414816 -2.14624,5.764179 0,2.353195 0.71286,4.288641 2.14624,5.81017 1.42954,1.5138629 3.19253,2.2688783 5.28894,2.2688783 1.82813,0 3.25385,-0.4484102 4.27714,-1.3490631 1.03096,-0.8968202 1.73999,-1.9852692 2.13091,-3.2653462 h 9.79604 c -0.39093,2.261214 -1.24942,4.4151159 -2.57549,6.469371 -1.3184,2.0542552 -3.12354,3.7482492 -5.41158,5.0743169 -2.28038,1.31840251 -5.02066,1.97760379 -8.21702,1.97760379 z M 197.81066,2.0867095e-4 h -9.6734 V -44.856139 h 9.6734 z M 221.31962,0.64407969 c -3.24236,0 -6.16277,-0.73585259 -8.76891,-2.20755779 -2.60615,-1.4793703 -4.65274,-3.51063 -6.13211,-6.0861141 -1.47171,-2.5831488 -2.20756,-5.4805688 -2.20756,-8.6922588 0,-3.19636 0.73585,-6.089947 2.20756,-8.676928 1.47937,-2.58315 3.52596,-4.614409 6.13211,-6.086114 2.60614,-1.479371 5.52655,-2.222888 8.76891,-2.222888 3.25001,0 6.17809,0.743517 8.78424,2.222888 2.60614,1.471705 4.64506,3.502964 6.11677,6.086114 1.47171,2.586981 2.20756,5.480568 2.20756,8.676928 0,3.21169 -0.73585,6.10911 -2.20756,8.6922588 -1.47171,2.5754841 -3.51063,4.6067438 -6.11677,6.0861141 -2.60615,1.4717052 -5.53423,2.20755779 -8.78424,2.20755779 z m 0,-8.96820339 c 2.09258,0 3.85556,-0.7435178 5.28894,-2.2382183 1.42954,-1.502366 2.14623,-3.426314 2.14623,-5.779509 0,-2.349363 -0.71669,-4.269478 -2.14623,-5.764179 -1.43338,-1.490868 -3.19636,-2.238218 -5.28894,-2.238218 -2.08492,0 -3.8479,0.74735 -5.28895,2.238218 -1.43337,1.494701 -2.14623,3.414816 -2.14623,5.764179 0,2.353195 0.71286,4.277143 2.14623,5.779509 1.44105,1.4947005 3.20403,2.2382183 5.28895,2.2382183 z m 36.02228,8.96820339 c -2.4835,0 -4.69873,-0.55955458 -6.638,-1.67099859 -1.94312,-1.111444 -3.46081,-2.7019587 -4.55309,-4.7677116 -1.08462,-2.0734179 -1.62501,-4.4802695 -1.62501,-7.2205535 V -32.68391 h 9.67339 v 18.074379 c 0,1.801306 0.5404,3.265346 1.62501,4.399785 1.09228,1.1267743 2.53716,1.6863289 4.33847,1.6863289 1.78597,0 3.22318,-0.5595546 4.3078,-1.6863289 1.09228,-1.134439 1.64034,-2.598479 1.64034,-4.399785 V -32.68391 h 9.68872 V 2.0867095e-4 h -8.33966 L 266.816,-2.8818806 h -0.3066 c -0.8585,0.9811368 -2.10025,1.816636 -3.72526,2.49883271 -1.62501,0.68219667 -3.44164,1.02712758 -5.44224,1.02712758 z m 39.72454,0 c -2.78244,0 -5.32727,-0.7128572 -7.63447,-2.14623669 -2.29954,-1.429547 -4.13534,-3.4378113 -5.50356,-6.0247931 -1.37206,-2.5831489 -2.05426,-5.5227269 -2.05426,-8.8149009 0,-3.288341 0.6822,-6.227919 2.05426,-8.814901 1.36822,-2.583149 3.20402,-4.591413 5.50356,-6.024793 2.3072,-1.429547 4.85203,-2.146236 7.63447,-2.146236 2.0006,0 3.78658,0.367926 5.35026,1.103778 1.56369,0.728188 2.6828,1.513864 3.35733,2.360861 h 0.32194 v -14.992997 h 9.68872 V 2.0867095e-4 h -8.33966 L 306.80116,-3.2038161 h -0.32194 c -0.85083,1.1152765 -2.07725,2.0350923 -3.67926,2.75944717 -1.60585,0.72435489 -3.5183,1.08844862 -5.73352,1.08844862 z m 1.79364,-8.90688239 c 2.09258,0 3.82107,-0.7358526 5.18163,-2.2075573 1.36823,-1.479371 2.05426,-3.437812 2.05426,-5.871491 0,-2.429846 -0.68603,-4.372957 -2.05426,-5.8255 -1.36056,-1.448709 -3.08905,-2.176897 -5.18163,-2.176897 -2.09641,0 -3.82873,0.728188 -5.19696,2.176897 -1.36056,1.452543 -2.03892,3.395654 -2.03892,5.8255 0,2.433679 0.67836,4.39212 2.03892,5.871491 1.36823,1.4717047 3.10055,2.2075573 5.19696,2.2075573 z m 0,0"
       style="fill:#1f438c;fill-opacity:1;fill-rule:nonzero;stroke:none"
       aria-label="Nextcloud"
       transform="matrix(1.0192259,0,0,1.0192259,20583.543,640.26789)"
       clip-path="url(#clipPath224)" />
    <path
       id="path225"
       d="m 573.64899,35.214001 c -0.92298,5.106998 -3.03302,17.836002 -4.69001,28.285999 -4.419,27.871002 -8.85101,55.221 -9.96698,61.5 -0.53698,3.02499 -2.35199,14.27499 -4.031,25 -5.31702,33.944 -6.05298,38.46201 -6.54102,40.125 -0.31799,1.08701 -2.53698,2.021 -6.698,2.81799 -17.75701,3.401 -50.725,11.767 -59.22198,15.02701 -1.10001,0.422 -5.14999,1.75701 -9,2.967 -9.207,2.893 -20.561,6.94999 -22.73599,8.125 -0.95499,0.516 -2.64301,0.938 -3.75,0.938 -1.107,0 -2.01401,0.45 -2.01401,1 0,0.55 -1.215,1 -2.70001,1 -2.13101,0 -2.44199,0.258 -1.47501,1.22501 0.96698,0.96701 1.63901,0.96699 3.18601,0 C 445.09,222.55101 446.65997,222 447.5,222 c 0.84003,0 2.30899,-0.411 3.26401,-0.914 2.30301,-1.21201 19.36999,-6.431 31.23599,-9.552 19.23801,-5.05901 47.29602,-10.76101 60.25,-12.245 5.63202,-0.644 5.43402,-1.62199 2.78802,13.786 -1.07897,6.28399 -2.42199,14.125 -2.984,17.425 -0.92902,5.453 -7.542,46.66101 -10.03003,62.5 -6.42603,40.90399 -13.84998,87.47299 -15.026,94.25 -0.54902,3.16199 -1.44501,8.33701 -1.99103,11.5 -0.54602,3.16199 -2.14899,13.17499 -3.56101,22.25 -4.56601,29.33398 -5.33401,34.246 -7.89599,50.5 -1.38599,8.79999 -2.95999,18.47501 -3.49701,21.5 -0.72269,4.16037 -1.40698,8.32703 -2.05295,12.5 -0.64529,4.17163 -1.32129,8.33832 -2.02802,12.5 -1.319,7.62701 -5.09698,31.26801 -10.46798,65.5 -4.85901,30.96997 -8.92801,56.39398 -10.52399,65.75 l -1.95801,11.5 c -0.53799,3.16302 -1.87399,11.375 -2.96798,18.25 -1.32645,8.33405 -2.65747,16.66742 -3.99302,25 -1.10199,6.875 -2.686,17 -3.51901,22.5 -3.056,20.159 -7.50299,48.146 -8.501,53.5 -1.23801,6.63898 -7.28,43.66199 -9.95499,61 -5.28101,34.224 -10.34699,66.32703 -11.59799,73.5 -1.874,10.73999 -2.22202,12.836 -3.48401,21 -0.64755,4.17175 -1.32657,8.33844 -2.03699,12.5 -0.96399,5.54797 -5.03601,31.09698 -8.92599,56 -3.03901,19.455 -4.478,28.45 -9.043,56.5 -7.66501,47.093 -8.79001,54.101 -14.53601,90.5 -6.01001,38.0761 -8.529,53.812 -9.443,59 -0.53299,3.025 -1.89999,11.1071 -3.03799,17.9611 -1.138,6.854 -2.233,12.624 -2.43201,12.823 -0.84,0.8399 -37.66501,-19.371 -47.229,-25.9211 C 330.021,1213.2881 327.901,1212 327.608,1212 c -2.22101,0 -55.155,-38.79 -58.608,-42.948 -0.27499,-0.331 -5.22501,-4.71 -11,-9.73 -19.054,-16.5649 -45.756,-44.6319 -63.571,-66.822 -17.171,-21.387 -34.45,-46.348 -46.727,-67.5 -9.874,-17.011 -21.613,-39.69702 -26.90801,-51.99799 -1.0799,-2.50915 -2.18057,-5.00915 -3.302,-7.5 -6.675,-14.65899 -19.198998,-49.44799 -23.503999,-65.28698 C 92.834816,895.97278 91.667488,891.73444 90.485992,887.5 86.80999,874.41699 81.911995,851.08099 78.940994,832.5 71.143997,783.74103 70.081993,728.17401 76.025993,680 86.919991,591.70001 118.73599,506.64999 167.81299,434.63699 c 13.931,-20.44101 26.51401,-36.52798 44.97101,-57.49301 8.772,-9.96499 10.18899,-12.793 3.23599,-6.45801 -6.22701,5.67402 -33.52001,36.219 -40.92301,45.79999 -23.061,29.84201 -37.23199,50.17801 -48.094,69.01401 -1.77424,3.05649 -3.55957,6.10648 -5.356,9.14999 -7.877,13.361 -22.736,42.36103 -29.641998,57.84998 -1.225998,2.75 -3.304001,7.37598 -4.616997,10.28003 C 86.074989,565.68402 85,568.50201 85,569.04303 c 0,0.54102 -0.445,1.76599 -0.987999,2.72101 -2.558998,4.49701 -16.069,43.039 -19.584999,55.87201 -8.739998,31.901 -15.070999,62.17401 -18.375999,87.86401 -6.314,49.08502 -5.994,101.83301 0.901,148.5 7.112999,48.14099 19.474999,91.65399 38.551003,135.69702 2.499001,5.76902 19.083004,38.99202 22.864994,45.80302 6.67,12.015 8.031,14.246 17.363,28.473 22.50301,34.303 41.724,57.825 70.704,86.527 44.31799,43.891 95.98001,79.362 152.065,104.406 6.60001,2.9471 13.91101,6.209 16.24701,7.25 2.336,1.0401 5.37299,2.319 6.75,2.8431 2.83301,1.077 3.05301,2.707 1.49701,11.0839 -0.55399,2.979 -3.02899,18.017 -5.50101,33.417 -2.47201,15.4001 -4.92599,30.475 -5.45401,33.5 -0.68881,3.995 -1.34717,7.995 -1.975,12 -1.13788,7.1697 -2.29456,14.3363 -3.47001,21.5 -1.35101,8.25 -3.64401,22.6501 -5.096,32 -1.45301,9.35 -4.19001,26.6751 -6.085,38.5 -7.73599,48.296 -7.45901,46.599 -10.39898,63.75 -0.54199,3.162 -2.315,14.3001 -3.94,24.75 -7.54001,48.485 -10.21302,65.3361 -11.02701,69.5 -0.483,2.475 -1.38401,7.875 -2.00202,12 -0.6774,4.506 -1.39139,9.006 -2.142,13.5 -4.703,27.6851 -6.74899,42.054 -6.083,42.72 1.36999,1.37 23.475,6.524 37.67099,8.783 92.64801,14.743 184.89099,1.9449 264.34204,-36.6761 32.75598,-15.922 65.25702,-36.879 87.35498,-56.327 l 2.84003,-2.5 -5.01502,-64.5 c -5.02502,-64.626 -8.04901,-102.623 -10.02899,-126 -2.01398,-23.7779 -2.89697,-34.559 -3.974,-48.5 -0.59497,-7.6999 -1.50403,-18.725 -2.02002,-24.5 -0.54047,-6.0599 -1.0658,-12.1213 -1.57599,-18.184 l -0.63702,-7.6839 3.862,-0.688 c 2.12298,-0.379 9.48602,-1.769 16.36102,-3.09 11.42902,-2.1949 17.29797,-3.4709 30,-6.5229 7.03497,-1.69 31.01898,-8.567 35.91699,-10.299 6.54303,-2.313 7.42298,-1.639 9.44397,7.221 0.97101,4.261 6.651,27.547 12.62201,51.7469 5.96997,24.2 13.86701,56.375 17.54797,71.5 8.61902,35.414 10.745,43.1071 11.969,43.323 0.91699,0.162 22.71301,-31.547 25.65503,-37.323 0.70001,-1.375 2.02399,-3.625 2.94201,-5 0.91803,-1.375 2.56299,-4.0749 3.65601,-6 1.09302,-1.925 5.39697,-9.482 9.565,-16.7939 16.30103,-28.595 40.19501,-78.8631 51.19599,-107.7061 1.46801,-3.8499 3.03698,-7.9 3.48498,-9 3.42401,-8.402 16.98102,-48.5639 19.57801,-58 8.00402,-29.081 16.46197,-66.363 20.15899,-88.8609 l 0.96399,-5.861 -16.03802,-23.639 c -8.82099,-13.002 -18.21003,-26.789 -20.86499,-30.6391 -6.19501,-8.985 -18.18,-26.588 -36.08301,-53 -7.57819,-11.1818 -15.1789,-22.34843 -22.802,-33.49998 -14.53003,-21.203 -40.112,-58.79498 -46.18702,-67.87097 -3.17602,-4.74597 -6.32598,-9.34003 -7,-10.20801 -0.78418,-1.02508 -1.52581,-2.08008 -2.22497,-3.16498 -0.54999,-0.87298 -5.10797,-7.58697 -10.12903,-14.92102 -12.76703,-18.64801 -43.125,-63.27301 -67.37598,-99.04199 -11.27197,-16.625 -24.32,-35.80298 -28.99499,-42.617 -33.47998,-48.79602 -41.23499,-60.357 -41.71301,-62.185 -0.237,-0.90601 3.94098,-8.80597 9.29101,-17.56903 5.34699,-8.75702 11.61102,-19.07202 13.91901,-22.922 2.30798,-3.84997 6.57599,-10.82501 9.48401,-15.5 2.90698,-4.67499 6.17901,-10.07501 7.27002,-12 1.091,-1.92499 2.75799,-4.625 3.70501,-6 0.94703,-1.375 6.46003,-10.375 12.25,-20 5.79102,-9.625 13.573,-22.45001 17.29303,-28.5 3.72101,-6.04999 7.55402,-12.34997 8.51703,-14 4.146,-7.10199 15.18799,-24.97699 17.00403,-27.52801 1.08899,-1.52899 1.97998,-3.00202 1.97998,-3.27198 0,-0.66803 18.97302,-31.958 20.10101,-33.14999 0.49402,-0.52301 0.89899,-1.63 0.89899,-2.45999 0,-1.20599 -12.58502,-36.314 -15.98401,-44.59 -0.45099,-1.1 -1.76501,-4.58801 -2.919,-7.75 l -4.19397,-11.5 c -1.154,-3.16299 -2.482,-6.64999 -2.95203,-7.75 -0.81097,-1.90201 -6.44598,-17.13501 -14.427,-39 -2.13526,-5.84564 -4.30359,-11.67898 -6.50501,-17.5 -1.57,-4.125 -4.50702,-12 -6.526,-17.5 -2.01898,-5.5 -4.03699,-10.89999 -4.48498,-12 -0.44702,-1.1 -1.80103,-4.70001 -3.008,-8 -4.59003,-12.544 -5.62799,-14.876 -6.797,-15.26599 -0.66198,-0.22 -1.20202,0.42401 -1.20098,1.43302 0.002,1.522 -3.76301,19.37298 -8.03199,38.083 -0.53399,2.33701 -1.38897,6.163 -1.90002,8.5 -0.51203,2.33701 -1.39301,6.275 -1.95899,8.75 -0.56598,2.47501 -1.966,9 -3.11102,14.5 -1.14502,5.5 -2.518,11.79999 -3.052,14 -0.534,2.20002 -2.52197,11.42499 -4.41803,20.5 -1.89502,9.07502 -4.14801,19.65 -5.00702,23.5 -0.85901,3.85001 -2.04797,9.25 -2.64301,12 -0.61401,2.83609 -1.24066,5.66935 -1.88,8.49982 -0.63635,2.82916 -1.25366,5.66251 -1.85199,8.5 -0.58002,2.75 -1.93799,9.04999 -3.01898,14 -1.55152,7.16074 -3.0755,14.32742 -4.57202,21.5 -1.43402,6.875 -3.03998,14.29999 -3.56897,16.5 -0.52899,2.20001 -2.10303,9.40002 -3.49903,16 -1.39599,6.59998 -2.97699,13.91302 -3.513,16.25 -1.33075,5.8269 -2.63275,11.66022 -3.906,17.5 -0.51203,2.33698 -1.39301,6.27502 -1.95899,8.75 -0.56598,2.47498 -1.93402,8.77502 -3.03998,14 -4.497,21.25201 -9.32897,43.87701 -10.67797,50 -2.12702,9.659 -3.48297,15.97302 -4.50098,20.95898 -0.84998,4.167 -2.36798,6.96802 -3.23798,5.974 -0.20898,-0.23797 -1.578,-15.73297 -3.044,-34.43298 -1.46601,-18.70001 -3.11402,-39.40002 -3.664,-46 -0.54999,-6.59998 -1.41999,-17.17499 -1.93299,-23.5 -0.92401,-11.38501 -2.17602,-26.74902 -3.99103,-49 -0.84301,-10.32501 -9.65502,-122.28 -12.01501,-152.634 -0.80566,-10.16904 -1.64032,-20.33573 -2.50403,-30.5 -0.86053,-10.11991 -1.69824,-20.24192 -2.513,-30.366 -0.52301,-6.60001 -1.43103,-17.85001 -2.01703,-25 -0.586,-7.14999 -1.47601,-18.175 -1.97802,-24.5 -0.69117,-8.66762 -1.39417,-17.33429 -2.10901,-26 -0.659,-7.97501 -1.23999,-16.74001 -1.292,-19.47701 -0.09,-4.746 0.045,-5.007 2.90601,-5.632 5.703,-1.244 53.96802,-0.837 71.5,0.60401 40.13098,3.298 78.21698,9.94299 110,19.192 12.65698,3.683 45.13098,14.50799 48,16 1.375,0.716 2.87701,1.30299 3.33801,1.307 1.78302,0.013 25.95801,10.629 42.16199,18.515 14.15302,6.888 29.55603,15.094 36.5,19.44699 0.82501,0.517 4.65002,2.84201 8.5,5.16599 16.49799,9.95901 42.33899,27.923 54.487,37.87799 13.784,11.29501 18.59302,15.41699 28.513,24.43799 17.676,16.07501 17.973,16.36899 32.423,32.06201 33.454,36.33301 55.703,66.89099 79.724,109.5 5.2779,9.36099 21.353,41.358 21.353,42.50198 0,0.24597 1.273,3.27198 2.83,6.72303 1.556,3.45098 4.2989,10.09997 6.0949,14.77502 1.7961,4.67505 3.647,9.40002 4.1131,10.5 0.466,1.09998 2.4759,6.72498 4.467,12.5 1.9911,5.77502 4.035,11.625 4.544,13 1.1259,3.04303 7.852,27.13397 8.9339,32 0.9769,4.33594 1.9646,8.66925 2.963,13 2.897,12.59302 4.183,19.12299 7.033,35.69098 7.182,41.768 8.53,98.66998 3.484,147.12298 -4.116,39.52601 -16.412,93.11701 -28.954,126.18598 -0.938,2.47497 -3.055,8.09997 -4.703,12.5 -1.6479,4.40002 -3.391,8.90002 -3.8719,10 -0.4821,1.09997 -2.903,6.80701 -5.38,12.68201 -12.079,28.64898 -30.1031,61.13495 -50.37,90.78305 -5.815,8.506 -11.135,16.156 -11.8221,17 -4.56,5.598 -10.362,14.0019 -10.362,15.01 0,0.66 2.354,-1.652 5.232,-5.138 2.877,-3.4849 5.484,-6.562 5.793,-6.837 2.4659,-2.193 24.559,-32.8409 33.693,-46.739 19.1,-29.062 33.03,-54.30104 46.328,-83.93703 2.9999,-6.69232 6.0088,-13.37994 9.027,-20.06298 1.06,-2.33197 1.927,-4.844 1.927,-5.58301 0,-0.73999 0.2989,-1.64301 0.6639,-2.008 1.07,-1.07098 13.5081,-36.73797 18.1961,-52.17901 6.555,-21.59101 15.1679,-63.25098 18.088,-87.49097 0.563,-4.67499 1.4649,-12.09998 2.005,-16.5 0.54,-4.40002 1.522,-18.65198 2.186,-31.67102 2.132,-41.85803 -1.657,-88.93402 -10.6109,-131.82898 -9.486,-45.44397 -22.2481,-82.86597 -42.1181,-123.5 -3.496,-7.14999 -7.983,-15.92499 -9.972,-19.5 -1.989,-3.57501 -4.8631,-8.75 -6.387,-11.5 -2.92,-5.267 -12.1219,-20.32501 -14.909,-24.39899 -1.056,-1.54648 -2.1033,-3.09881 -3.142,-4.65701 -10.906,-16.41901 -25.864,-36.07999 -40.5,-53.23199 -9.838,-11.53 -45.1131,-46.064 -58,-56.78299 -21.71804,-18.064 -45.31405,-34.67701 -70.50002,-49.637 -11.98499,-7.119 -44.48401,-23.79199 -56,-28.729 -3.29645,-1.41455 -6.58844,-2.83956 -9.87598,-4.275 -10.909,-4.77799 -46.16498,-17.205 -57.62402,-20.31199 -40.232,-10.907 -68.92401,-16.30501 -110,-20.694 -17.96002,-1.91901 -87.638,-1.627 -107,0.448 -8.25,0.884 -15.328,1.293 -15.72901,0.91 -0.62201,-0.595 -3.66601,-36.069 -7.77801,-90.639999 -0.58002,-7.699997 -1.45899,-18.949997 -1.95203,-25 -0.49304,-6.050004 -1.43799,-17.75 -2.10101,-26 -0.66199,-8.25 -1.521,-15.354001 -1.90802,-15.786 -0.388,-0.433 -1.46002,3.392 -2.383,8.5 M 435,225 c 0,0.55 0.67499,1 1.5,1 0.82501,0 1.5,-0.45 1.5,-1 0,-0.55 -0.67499,-1 -1.5,-1 -0.82501,0 -1.5,0.45 -1.5,1 m -4.5,2 c -0.34,0.55 -0.14099,1 0.44101,1 0.582,0 1.05899,-0.45 1.05899,-1 0,-0.55 -0.198,-1 -0.44101,-1 -0.24301,0 -0.71899,0.45 -1.05899,1 M 222.506,363.99399 c -0.999,1.10299 -1.489,2.00601 -1.09,2.00601 1.05499,0 3.905,-3.01199 3.364,-3.55399 -0.25301,-0.25201 -1.276,0.444 -2.274,1.54801 M 634,742.39099 c 0,3.04498 0.43298,9.94098 0.96198,15.323 0.52899,5.38202 1.42297,15.63599 1.98699,22.78601 2.11902,26.86499 3.11902,39.33301 4.05103,50.5 0.52802,6.32501 1.42798,17.34998 2,24.5 0.65771,8.16852 1.3374,16.33521 2.039,24.5 0.54901,6.32501 2.78601,34.90002 4.97101,63.5 3.81897,49.98303 5.87402,75.859 7.97998,100.5 0.54102,6.325 1.45398,17.575 2.02899,25 0.57501,7.4251 1.47199,18.6751 1.99298,25 0.521,6.325 1.41602,17.35 1.98798,24.5 0.57196,7.15 1.48199,18.1751 2.02197,24.5 1.43201,16.798 5.68598,70.306 7.47199,94 2.414,32.026 4.66699,58.468 5.01202,58.827 0.75201,0.781 41.26703,-5.03 54.99402,-7.8879 13.95203,-2.905 30.46197,-6.893 33.83197,-8.174 2.58502,-0.982 2.776,-1.39 2.19,-4.67 -0.354,-1.9771 -1.05401,-4.9449 -1.55603,-6.595 -0.50201,-1.65 -2.294,-8.8499 -3.98102,-16 -3.15899,-13.39 -4.07098,-17.123 -5.86102,-24 -0.573,-2.1999 -2.43402,-9.8499 -4.13501,-17 -1.70099,-7.15 -3.31,-13.9 -3.57501,-15 -0.26502,-1.0999 -1.60999,-6.275 -2.98999,-11.5 -1.37903,-5.2249 -2.90003,-11.3 -3.37799,-13.5 -0.98603,-4.529 -3.64899,-15.259 -5.08698,-20.5 -0.52801,-1.925 -2.78698,-11.15 -5.01898,-20.5 -2.23199,-9.3499 -8.55499,-35.2249 -14.04901,-57.5 -5.99994,-24.3336 -11.98932,-48.667 -17.96802,-73 -4.388,-17.87498 -8.39899,-34.07499 -8.914,-35.99998 -0.51501,-1.92499 -4.33398,-17.45001 -8.48798,-34.5 -4.15399,-17.04999 -7.984,-32.57501 -8.51098,-34.5 -0.52802,-1.92499 -3.24799,-12.95001 -6.04499,-24.5 -2.79699,-11.54999 -9.307,-38.09997 -14.466,-59 -5.15997,-20.90002 -11.354,-46.09997 -13.76599,-56 -3.36401,-13.81201 -4.77399,-18.07501 -6.05902,-18.323 -1.40302,-0.27099 -1.67401,0.573 -1.67401,5.21399 m 353.68103,434.87899 c -0.70697,19.6181 -2.58801,32.2481 -8.599,57.73 -5.39002,22.8521 -9.02802,34.83 -21.10999,69.5 -3.81701,10.953 -16.87597,43.2591 -21.56097,53.339 -1.87598,4.037 -3.41101,7.5341 -3.41101,7.772 0,0.2379 -4.82001,10.2099 -10.71198,22.161 -11.22998,22.7791 -17.66601,34.903 -24.92999,46.9611 -2.39697,3.978 -4.35797,7.4969 -4.35797,7.8199 0,0.323 -1.34998,2.549 -3,4.947 -1.65002,2.3981 -3,4.638 -3,4.9781 0,0.34 -3.375,5.7929 -7.5,12.119 -4.125,6.327 -7.5,11.693 -7.5,11.9239 0,0.434 -11.612,17.641 -15.50702,22.979 -2.73999,3.756 -22.12402,29.617 -25.49298,34.012 -39.638,51.713 -93.31897,101.699 -147,136.88 -21.25098,13.927 -56.03101,32.4549 -78,41.552 -5.77502,2.391 -11.84998,4.936 -13.5,5.655 -3.66199,1.595 -28.55701,9.9621 -37.5,12.6021 -21.59399,6.375 -37.01202,9.754 -60.5,13.258 -31.84201,4.751 -36.401,5.043 -77.5,4.98 -38.29999,-0.06 -40.229,-0.157 -63.5,-3.194 -28.19699,-3.6789 -57.85599,-9.008 -71.75,-12.891 -1.22299,-0.342 -1.75,0.082 -1.75,1.407 0,7.147 27.345,33.281 52,49.6971 9.83099,6.546 33.99899,18.802 44.5,22.567 3.29999,1.183 8.47501,3.0699 11.5,4.193 3.02499,1.123 6.85001,2.405 8.5,2.848 1.64999,0.443 7.04999,1.951 12,3.35 10.69699,3.024 37.24399,8.9909 46.75,10.5069 40.84399,6.515 55.17599,7.568 102.75,7.546 39.01697,-0.018 47.82501,-0.421 76.5,-3.499 41.276,-4.431 87.08502,-13.0389 125,-23.489 3.29999,-0.91 7.34998,-2.0229 9,-2.474 9.49701,-2.597 50.83698,-16.052 55,-17.902 1.09998,-0.489 7.40002,-3.03 14,-5.6479 6.59998,-2.6179 14.33398,-5.817 17.18597,-7.109 2.85199,-1.292 5.40802,-2.3481 5.68,-2.3481 1.75,0 42.22497,-19.654 54.63397,-26.529 20.18402,-11.183 27.27502,-15.351 36.823,-21.6441 4.02801,-2.655 7.51599,-4.827 7.75097,-4.827 0.94599,0 20.82099,-14.074 34.92603,-24.732 18.91196,-14.292 24.15996,-18.569 41.73296,-34.018 3.637,-3.198 5.666,-4.25 8.195,-4.25 4.8239,0 15.4489,3.492 23.3039,7.6601 7.6121,4.0379 26.298,16.394 36.5711,24.182 3.7419,2.837 7.17,5.1579 7.618,5.1579 0.448,0 1.073,-1.687 1.387,-3.75 0.3139,-2.063 1.6899,-9.842 3.0579,-17.2879 13.037,-70.963 10.6071,-160.902 -6.336,-234.4621 -3.156,-13.704 -6.407,-26.576 -10.9871,-43.5 -10.5379,-38.938 -30.9659,-92.29 -51.103,-133.462 -8.631,-17.647 -23.634,-45.718 -27.094,-50.692 -1.015,-1.46 -1.846,-2.871 -1.846,-3.136 0,-1.724 -23.97602,-38.905 -28.33503,-43.94 l -2.36401,-2.7299 z M 1046,1697.811 c -1.925,1.017 -11.395,7.054 -21.045,13.4151 -16.9311,11.162 -37.52806,23.812 -48.95506,30.068 -3.02503,1.656 -6.69403,3.843 -8.15399,4.859 -1.45996,1.016 -2.83802,1.847 -3.06201,1.847 -0.22498,0 -6.49201,3.296 -13.92701,7.324 -12.27502,6.651 -50.22699,25.676 -51.21801,25.676 -0.22699,0 -4.71601,2.025 -9.97699,4.5 -5.26099,2.475 -9.80103,4.5 -10.08899,4.5 -0.28797,0 -3.34699,1.282 -6.79798,2.849 -3.45099,1.567 -13.02502,5.438 -21.27502,8.6021 -8.25,3.164 -15.90003,6.146 -17,6.624 -8.73901,3.804 -52.72199,17.493 -72,22.41 -62.948,16.052 -108.03699,22.204 -170.27698,23.229 -49.36798,0.814 -87.393,-1.917 -130.22302,-9.352 -4.49918,-0.7816 -8.99918,-1.5587 -13.5,-2.3311 -4.996,-0.855 -7.259,-1.313 -15.25,-3.087 -8.34,-1.8521 -12.927,-2.913 -26.047,-6.027 -7.31399,-1.735 -13.56601,-2.8879 -13.893,-2.56 -1.224,1.224 1.78399,3.307 6.71798,4.651 2.80399,0.7629 5.32199,1.749 5.594,2.1899 0.272,0.4409 1.376,0.802 2.45099,0.802 1.07498,0 2.73599,0.41 3.69101,0.911 3.60501,1.892 27.37399,8.2741 48.73599,13.087 10.64001,2.397 31.741,5.7811 49.5,7.939 48.36301,5.877 120.6,5.679 174.99997,-0.48 16.935,-1.917 38.83697,-4.937 50.25,-6.93 4.81299,-0.84 12.46197,-2.179 17,-2.976 4.53802,-0.797 15.67499,-3.035 24.75,-4.974 41.09497,-8.779 56.77801,-12.7149 88,-22.083 8.52502,-2.558 16.84997,-5.008 18.5,-5.4449 5.401,-1.429 20.83502,-6.767 29,-10.0301 7.73199,-3.0899 9.71002,-3.953 23.27502,-10.151 3.45099,-1.578 6.51898,-2.868 6.81702,-2.868 0.68701,0 62.55998,-30.955 63.90798,-31.973 0.886,-0.669 21.3501,-11.776 35.0001,-18.996 7.137,-3.776 22.0551,-9.588 28.5,-11.104 12.691,-2.986 27.892,-1.157 43.3471,5.2159 5.083,2.096 7.311,2.59 8.0849,1.793 1.343,-1.384 -4.579,-6.8979 -19.129,-17.808 -26.6081,-19.951 -46.827,-28.3249 -56.303,-23.317 m 28.892,56.543 c -3.084,1.269 -7.1341,3.249 -9,4.401 -4.7691,2.943 -44.565,22.6899 -55.392,27.4859 -14.81598,6.5621 -35.38599,15.2321 -45.5,19.178 -5.22498,2.038 -10.40002,4.091 -11.5,4.5611 -2.72302,1.165 -21.68597,8.03 -34.5,12.489 -5.77502,2.01 -11.625,4.047 -13,4.5279 -1.375,0.481 -7.22498,2.282 -13,4.0031 -5.77502,1.721 -11.625,3.532 -13,4.024 -10.35797,3.7071 -67.01099,18.424 -84.30103,21.8991 L 778.5,1860.38 c -7.15002,1.437 -15.70001,3.098 -19,3.692 -3.29999,0.594 -8.02502,1.4831 -10.5,1.9771 -9.07599,1.811 -38.995,5.956 -57,7.8969 -33.57001,3.617 -61.05402,5.054 -96.68799,5.054 -52.77099,0 -88.51599,-3.194 -133.81201,-11.958 -2.20001,-0.4251 -4.742,-1.09 -5.64899,-1.476 -2.044,-0.8709 -3.27899,0.844 -1.58999,2.208 0.681,0.5501 5.514,2.158 10.73901,3.5721 76.85098,20.8029 186.26999,25.469 294.99997,12.5799 24.13397,-2.8609 41.69397,-5.473 60,-8.926 2.47498,-0.467 7.42499,-1.363 11,-1.991 3.57501,-0.6279 8.29999,-1.5529 10.5,-2.0539 2.20001,-0.502 11.65002,-2.5191 21,-4.4831 21.70703,-4.56 44.659,-9.9809 61,-14.4069 9.88702,-2.678 39.80103,-12.135 41,-12.963 0.54999,-0.3791 3.47498,-1.517 6.5,-2.5291 3.02502,-1.0121 6.84998,-2.397 8.5,-3.079 16.34399,-6.748 44.733,-19.3399 63,-27.943 7.506,-3.536 15.8149,-7.13 29,-12.5439 20.7481,-8.5191 47.32,-14.924 62.191,-14.989 2.3051,-0.01 4.4411,-0.422 4.746,-0.916 1.223,-1.9781 -23.738,-16.131 -36.249,-20.554 -7.166,-2.533 -15.908,-4.563 -19.4871,-4.5241 -1.211,0.013 -4.7249,1.0621 -7.8089,2.33"
       style="fill:#1f438c;fill-opacity:1;fill-rule:evenodd;stroke:none"
       transform="matrix(0.10071536,0,0,0.10071536,20436.754,474.80773)"
       clip-path="url(#clipPath226)" />
    <g
       id="g226" />
    <path
       id="path227"
       d="m 26.601975,-45.503631 c 4.403748,0 8.383573,1.006028 11.9458,3.011759 3.555901,2.012057 6.352534,4.777055 8.377246,8.301319 2.037367,3.530592 3.062377,7.453471 3.062377,11.768639 0,4.321494 -1.02501,8.244374 -3.062377,11.768638 -2.024712,3.5116101 -4.821345,6.2702802 -8.377246,8.2760105 -3.562227,2.01205757 -7.542052,3.01175913 -11.9458,3.01175913 -4.403749,0 -8.396228,-0.99970156 -11.97111,-3.01175913 -3.562228,-2.0057303 -6.3525342,-4.7644004 -8.3772462,-8.2760105 -2.024712,-3.524264 -3.037068,-7.447144 -3.037068,-11.768638 0,-4.315168 1.012356,-8.238047 3.037068,-11.768639 2.024712,-3.524264 4.8150182,-6.289262 8.3772462,-8.301319 3.574882,-2.005731 7.567361,-3.011759 11.97111,-3.011759 z m 0,39.7349729 c 3.150958,0 5.998209,-0.7149764 8.529099,-2.1512565 2.543544,-1.4299529 4.53662,-3.4167014 5.9729,-5.9475914 1.429953,-2.543545 2.151257,-5.397123 2.151257,-8.554408 0,-3.16994 -0.721304,-6.023519 -2.151257,-8.554409 -1.43628,-2.543544 -3.429356,-4.53662 -5.9729,-5.9729 -2.53089,-1.429953 -5.378141,-2.151257 -8.529099,-2.151257 -3.176267,0 -6.036173,0.721304 -8.579718,2.151257 -2.53089,1.43628 -4.517638,3.429356 -5.947591,5.9729 -1.43628,2.53089 -2.1512567,5.384469 -2.1512567,8.554409 0,3.157285 0.7149767,6.010863 2.1512567,8.554408 1.429953,2.53089 3.416701,4.5176385 5.947591,5.9475914 2.543545,1.4362801 5.403451,2.1512565 8.579718,2.1512565 z m 9.921088,-20.5002089 c 0,2.125947 -0.594759,3.821644 -1.771623,5.087089 -1.164209,1.265445 -2.518235,2.024712 -4.049424,2.277801 l 6.479079,7.693905 h -6.732168 l -5.770429,-7.36489 h -0.658031 v 7.36489 h -5.745121 v -22.752701 h 10.250105 c 2.391691,0 4.327822,0.721304 5.795738,2.151257 1.467916,1.43628 2.201874,3.283829 2.201874,5.542649 z m -12.502596,3.188921 h 3.846953 c 0.860502,0 1.55017,-0.240434 2.075329,-0.733958 0.537815,-0.487196 0.809885,-1.195845 0.809885,-2.125948 0,-0.942756 -0.27207,-1.657733 -0.809885,-2.151256 -0.525159,-0.487196 -1.214827,-0.733958 -2.075329,-0.733958 h -3.846953 z m 0,0"
       style="fill:#1f438c;fill-opacity:1;fill-rule:nonzero;stroke:none"
       aria-label="®"
       transform="matrix(0.61737175,0,0,0.61737175,20910.112,615.51701)"
       clip-path="url(#clipPath228)" />
  </g>
</svg>
