<?xml version="1.0" encoding="UTF-8" standalone="no"?>
<!-- Created with Inkscape (http://www.inkscape.org/) -->

<svg
   version="1.1"
   id="svg1"
   width="611.5387"
   height="187.77519"
   viewBox="0 0 611.5387 187.77519"
   xmlns="http://www.w3.org/2000/svg"
   xmlns:svg="http://www.w3.org/2000/svg">
  <defs
     id="defs1">
    <clipPath
       clipPathUnits="userSpaceOnUse"
       id="clipPath70">
      <path
         d="m 271.10764,1451.1416 h 390.62503 v 606.25 H 271.10764 Z"
         transform="matrix(3.1772709,0,0,3.1772709,-861.38202,-4610.6945)"
         clip-rule="evenodd"
         id="path70" />
    </clipPath>
  </defs>
  <g
     id="g61"
     transform="translate(-7416.9379,-477.49488)">
    <g
       id="g65">
      <g
         id="g66" />
      <path
         id="path66"
         d="M 5.4692103,0.00182037 V -53.404432 H 22.766086 c 6.5625,0 10.835938,0.265625 12.828126,0.796875 3.03125,0.804688 5.578125,2.546875 7.640625,5.234375 2.070312,2.679688 3.109375,6.132813 3.109375,10.359376 0,2.824219 -0.4375,5.261719 -1.3125,7.3125 -0.875,2.054688 -2.117188,3.796875 -3.71875,5.234375 -1.605469,1.429688 -3.5,2.507813 -5.6875,3.234375 -2.187501,0.730469 -6.304688,1.093751 -12.343751,1.093751 H 16.172336 V 0.00182037 Z M 16.172336,-44.404431 v 15.15625 h 5.90625 c 4.269531,0 7.113282,-0.269531 8.53125,-0.8125 1.425782,-0.550781 2.550782,-1.421875 3.375,-2.609375 0.832032,-1.195313 1.250001,-2.597656 1.250001,-4.203125 0,-1.9375 -0.578125,-3.523438 -1.734376,-4.765625 -1.15625,-1.238282 -2.59375,-2.03125 -4.3125,-2.375 -1.292969,-0.257813 -3.882812,-0.390625 -7.765625,-0.390625 z M 67.215307,0.00182037 V -44.404431 H 51.324681 v -9.000001 h 42.453127 v 9.000001 H 77.965307 V 0.00182037 Z m 54.460943,0 V -53.404432 h 10.75 v 23.718751 l 21.78125,-23.718751 h 14.53125 l -20.14063,20.796876 21.20313,32.60937637 h -13.95313 l -14.71875,-25.06250137 -8.70312,8.953126 V 0.00182037 Z m 101.81641,0 h -11.6875 l -4.625,-12.17187537 H 185.75828 L 181.35203,0.00182037 H 169.94578 L 190.74266,-53.404432 h 11.4375 z m -19.8125,-21.12500137 -7.32813,-19.828125 -7.25,19.828125 z M 229.35984,0.00182037 V -53.404432 h 10.50001 l 21.85937,35.671877 v -35.671877 h 10.01563 V 0.00182037 h -10.8125 L 239.34422,-34.826306 V 0.00182037 Z m 53.41016,0 V -53.404432 h 10.82813 V 0.00182037 Z m 18.3711,-17.37500037 10.48437,-1.0625 c 0.60157,3.554687 1.875,6.164062 3.8125,7.828125 1.94532,1.65625 4.5625,2.484375 7.84375,2.484375 3.47657,0 6.10157,-0.734375 7.875,-2.203125 1.76954,-1.46875 2.65625,-3.195313 2.65625,-5.1875 0,-1.238282 -0.38281,-2.304688 -1.14062,-3.203125 -0.75,-0.90625 -2.03125,-1.6875 -3.84375,-2.343751 -1.3125,-0.4375 -4.20313,-1.203125 -8.67188,-2.296875 -5.78125,-1.425781 -9.83984,-3.1875 -12.17187,-5.28125 -3.28125,-2.9375 -4.92188,-6.515625 -4.92188,-10.734375 0,-2.75 0.76953,-5.304688 2.3125,-7.671876 1.53907,-2.375 3.76953,-4.175781 6.6875,-5.40625 2.91407,-1.238281 6.41016,-1.859375 10.48438,-1.859375 6.70703,0 11.75391,1.46875 15.14062,4.40625 3.38282,2.9375 5.17579,6.859376 5.375,11.765626 l -10.8125,0.46875 c -0.46875,-2.738282 -1.46484,-4.703125 -2.98437,-5.890625 -1.51172,-1.195313 -3.78906,-1.796876 -6.82813,-1.796876 -2.66797,0 -4.84375,0.460938 -6.53125,1.375001 -1.6875,0.90625 -2.53125,2.1875 -2.53125,3.84375 0,1.242187 0.54688,2.308594 1.64063,3.203125 1.33203,1.136719 4.61719,2.335937 9.85937,3.59375 5.25,1.25 9.12891,2.53125 11.64063,3.84375 2.51953,1.304688 4.48828,3.117188 5.90625,5.4375 1.42578,2.324219 2.14062,5.171876 2.14062,8.546876 0,3.03125 -0.85546,5.8828125 -2.5625,8.5468751 -1.69921,2.6562501 -4.10546,4.6484377 -7.21875,5.96875023 -3.10546,1.32031256 -6.96484,1.98437508 -11.57812,1.98437508 -13.33594,0 -20.6875,-6.11718771 -22.0625,-18.35937541 z M 353.26219,0.00182037 V -53.404432 h 10.82813 V 0.00182037 Z M 374.28954,-53.404432 h 10.75 v 28.921876 c 0,4.593751 0.15625,7.585938 0.46875,8.968751 0.4375,2.136719 1.51953,3.882812 3.25,5.234375 1.73828,1.34375 4.10156,2.015625 7.09375,2.015625 3.08203,0 5.39453,-0.6328125 6.9375,-1.90625 1.53906,-1.28125 2.47266,-2.820313 2.79687,-4.625 0.33204,-1.8125 0.5,-4.832032 0.5,-9.062501 v -29.546876 h 10.82813 v 28.046876 c 0,6.417969 -0.30469,10.953126 -0.90625,13.609376 -0.59375,2.65625 -1.67188,4.8984376 -3.23438,6.7187502 -1.5625,1.8242188 -3.65234,3.2734376 -6.26562,4.34375014 -2.61719,1.06250005 -6.03125,1.59375007 -10.25,1.59375007 -5.125,0 -9.00781,-0.58984377 -11.64063,-1.76562507 -2.63672,-1.17578134 -4.71484,-2.70312514 -6.23437,-4.57812524 -1.52344,-1.8828125 -2.53906,-3.8476564 -3.04688,-5.8906251 -0.69922,-3.082031 -1.04687,-7.613282 -1.04687,-13.593751 z m 51.22266,36.031252 10.48437,-1.0625 c 0.60156,3.554687 1.875,6.164062 3.8125,7.828125 1.94531,1.65625 4.5625,2.484375 7.84375,2.484375 3.47657,0 6.10157,-0.734375 7.875,-2.203125 1.76953,-1.46875 2.65625,-3.195313 2.65625,-5.1875 0,-1.238282 -0.38281,-2.304688 -1.14062,-3.203125 -0.75,-0.90625 -2.03125,-1.6875 -3.84375,-2.343751 -1.3125,-0.4375 -4.20313,-1.203125 -8.67188,-2.296875 -5.78125,-1.425781 -9.83984,-3.1875 -12.17187,-5.28125 -3.28125,-2.9375 -4.92188,-6.515625 -4.92188,-10.734375 0,-2.75 0.76953,-5.304688 2.3125,-7.671876 1.53906,-2.375 3.76953,-4.175781 6.6875,-5.40625 2.91406,-1.238281 6.41016,-1.859375 10.48438,-1.859375 6.70703,0 11.7539,1.46875 15.14062,4.40625 3.38282,2.9375 5.17578,6.859376 5.375,11.765626 l -10.8125,0.46875 c -0.46875,-2.738282 -1.46484,-4.703125 -2.98437,-5.890625 -1.51172,-1.195313 -3.78906,-1.796876 -6.82813,-1.796876 -2.66797,0 -4.84375,0.460938 -6.53125,1.375001 -1.6875,0.90625 -2.53125,2.1875 -2.53125,3.84375 0,1.242187 0.54688,2.308594 1.64063,3.203125 1.33203,1.136719 4.61718,2.335937 9.85937,3.59375 5.25,1.25 9.12891,2.53125 11.64063,3.84375 2.51953,1.304688 4.48828,3.117188 5.90625,5.4375 1.42578,2.324219 2.14062,5.171876 2.14062,8.546876 0,3.03125 -0.85547,5.8828125 -2.5625,8.5468751 -1.69922,2.6562501 -4.10547,4.6484377 -7.21875,5.96875023 -3.10547,1.32031256 -6.96484,1.98437508 -11.57812,1.98437508 -13.33594,0 -20.6875,-6.11718771 -22.0625,-18.35937541 z m 0,0"
         style="fill:#1f438c;fill-opacity:1;fill-rule:nonzero;stroke:none"
         aria-label="PT KANISIUS"
         transform="translate(7559.5425,561.79753)" />
    </g>
    <g
       id="g67">
      <g
         id="g68" />
      <path
         id="path68"
         d="m 20.512342,0.64407969 c -3.855561,0 -7.182228,-0.65920128 -9.98,-1.97760379 C 7.7422338,-2.6595918 5.6036623,-4.4915582 4.1242919,-6.821758 2.6525868,-9.1519579 1.9167342,-11.765768 1.9167342,-14.670852 H 12.17268 c 0,1.839631 0.724355,3.357327 2.176897,4.553088 1.44871,1.19576 3.502965,1.7936403 6.162765,1.7936403 2.552489,0 4.468772,-0.4484102 5.748849,-1.3490631 1.287742,-0.8968202 1.931613,-2.0542552 1.931613,-3.4646392 0,-1.195761 -0.490569,-2.184562 -1.471705,-2.974071 -0.981137,-0.797174 -2.62914,-1.402719 -4.936345,-1.824301 l -7.051921,-1.287742 c -4.016528,-0.724355 -6.9982643,-2.107911 -8.9375425,-4.154501 -1.9431107,-2.054255 -2.9127498,-4.832865 -2.9127498,-8.339663 0,-2.606145 0.6668664,-4.94401 2.0082644,-7.02126 1.349063,-2.073418 3.2960063,-3.717589 5.8408299,-4.936344 2.544824,-1.214924 5.587881,-1.824302 9.136836,-1.824302 3.840231,0 7.136237,0.655369 9.888019,1.962274 2.759448,1.29924 4.844363,3.104378 6.254747,5.411582 1.410385,2.311037 2.115577,4.978503 2.115577,8.002397 H 27.870868 c 0,-1.785975 -0.728187,-3.299839 -2.176897,-4.537757 -1.452542,-1.245584 -3.395653,-1.870292 -5.8255,-1.870292 -2.138571,0 -3.79424,0.459908 -4.967005,1.379723 -1.176597,0.919816 -1.76298,2.065753 -1.76298,3.433979 0,1.157435 0.390922,2.04659 1.18043,2.667466 0.797174,0.61321 2.215223,1.115276 4.261813,1.502365 l 7.051921,1.272412 c 4.484102,0.820169 7.741782,2.253549 9.765377,4.307804 2.03126,2.04659 3.050722,4.99 3.050722,8.830231 0,2.606145 -0.686029,4.9593398 -2.054255,7.0519206 -1.372058,2.0964133 -3.399486,3.7405839 -6.086114,4.9363444 -2.690461,1.19576046 -5.955807,1.79364069 -9.796038,1.79364069 z M 54.530194,2.0867095e-4 H 44.856799 V -32.68391 h 9.673395 z M 54.790809,-37.420961 H 44.657505 v -8.400984 H 54.790809 Z M 62.222153,2.0867095e-4 V -32.68391 h 8.324333 l 0.643871,2.882089 h 0.321935 c 0.766513,-0.889155 1.923948,-1.693994 3.47997,-2.422182 1.563687,-0.735852 3.456974,-1.103778 5.687527,-1.103778 2.472005,0 4.679563,0.567219 6.622673,1.701659 1.939279,1.134439 3.456975,2.740284 4.553088,4.813702 1.092281,2.065753 1.640338,4.468771 1.640338,7.205223 V 2.0867095e-4 H 83.807163 V -18.012849 c 0,-1.785976 -0.548057,-3.250016 -1.640338,-4.384455 -1.084617,-1.13444 -2.521829,-1.70166 -4.307804,-1.70166 -1.801306,0 -3.246183,0.56722 -4.338464,1.70166 -1.084616,1.134439 -1.625008,2.598479 -1.625008,4.384455 V 2.0867095e-4 Z M 115.97772,13.460179 c -3.70993,0 -6.75298,-0.697527 -9.12151,-2.084916 -2.37236,-1.391221 -4.09318,-3.0468894 -5.1663,-4.9670047 -1.06545,-1.9239479 -1.62117,-3.7175886 -1.671,-5.3809221 h 9.87269 c 0.21463,1.0194625 0.81251,1.9546085 1.79364,2.805438 0.98114,0.8584947 2.41069,1.2877421 4.29248,1.2877421 2.01209,0 3.61794,-0.5902151 4.8137,-1.7629802 1.19576,-1.1765976 1.79364,-2.74411694 1.79364,-4.7063905 v -3.8478958 h -0.32193 c -0.68603,0.7780108 -1.77831,1.4793703 -3.28068,2.1002459 -1.4947,0.6132105 -3.1542,0.9198157 -4.98234,0.9198157 -2.78244,0 -5.2966,-0.6592012 -7.54248,-1.9776038 -2.23822,-1.3260677 -4.0012,-3.1771969 -5.28895,-5.5495549 -1.280072,-2.3685257 -1.916278,-5.0513217 -1.916278,-8.0483877 0,-2.981736 0.636206,-5.660699 1.916278,-8.033057 1.28775,-2.368526 3.05073,-4.219655 5.28895,-5.549555 2.24588,-1.326068 4.76004,-1.992934 7.54248,-1.992934 3.84023,0 6.82964,1.283909 8.96821,3.847895 h 0.32193 l 0.64387,-3.204024 h 8.32434 v 31.3963766 c 0,4.4841018 -1.44105,8.063718 -4.32314,10.7311836 -2.88209,2.6751308 -6.86796,4.0165288 -11.9576,4.0165288 z m -0.18397,-24.099172 c 1.92012,0 3.5298,-0.666867 4.82904,-2.008265 1.3069,-1.349063 1.96227,-3.050722 1.96227,-5.104977 0,-2.042757 -0.65537,-3.729086 -1.96227,-5.058987 -1.29924,-1.326067 -2.90892,-1.992934 -4.82904,-1.992934 -1.92394,0 -3.53745,0.666867 -4.84436,1.992934 -1.29924,1.329901 -1.94694,3.01623 -1.94694,5.058987 0,2.054255 0.6477,3.755914 1.94694,5.104977 1.30691,1.341398 2.92042,2.008265 4.84436,2.008265 z m 34.152,10.63920167095 h -9.6734 V -44.856139 h 9.6734 z M 173.53136,0.64407969 c -3.25002,0 -6.1781,-0.73585259 -8.78425,-2.20755779 -2.60614,-1.4793703 -4.66039,-3.51063 -6.16276,-6.0861141 -1.4947,-2.5831488 -2.23822,-5.4805688 -2.23822,-8.6922588 0,-3.19636 0.74352,-6.089947 2.23822,-8.676928 1.50237,-2.58315 3.55662,-4.614409 6.16276,-6.086114 2.60615,-1.479371 5.53423,-2.222888 8.78425,-2.222888 3.06605,0 5.87149,0.73202 8.41631,2.192227 2.54482,1.452542 4.54159,3.449309 5.99413,5.994133 1.44871,2.537158 2.1769,5.342596 2.1769,8.416314 0,1.157434 -0.10731,2.222888 -0.32194,3.204024 h -23.83855 c 0.25294,1.801306 1.08844,3.307504 2.49883,4.5224277 1.41038,1.2187559 3.10054,1.8243012 5.07432,1.8243012 1.4487,0 2.68662,-0.2759447 3.70992,-0.8278341 1.01946,-0.5595546 1.78597,-1.138272 2.29954,-1.7323197 h 9.75004 c -0.42924,1.4525424 -1.28774,2.9702384 -2.57548,4.5530879 -1.28008,1.5751845 -3.04306,2.9395778 -5.28894,4.0931801 -2.23822,1.15360219 -4.87119,1.73231959 -7.89508,1.73231959 z m 7.03659,-19.99066169 c -0.25679,-1.797474 -1.02713,-3.296007 -2.31487,-4.491767 -1.28008,-1.195761 -2.85143,-1.793641 -4.72172,-1.793641 -2.01593,0 -3.68693,0.59788 -5.013,1.793641 -1.3184,1.19576 -2.17307,2.694293 -2.56015,4.491767 z m 49.60872,19.99066169 c -3.85556,0 -7.18222,-0.65920128 -9.98,-1.97760379 -2.7901,-1.3260677 -4.92868,-3.1580341 -6.40805,-5.4882339 -1.4717,-2.3301999 -2.20755,-4.94401 -2.20755,-7.849094 h 10.25594 c 0,1.839631 0.72436,3.357327 2.1769,4.553088 1.44871,1.19576 3.50296,1.7936403 6.16276,1.7936403 2.55249,0 4.46878,-0.4484102 5.74885,-1.3490631 1.28774,-0.8968202 1.93162,-2.0542552 1.93162,-3.4646392 0,-1.195761 -0.49057,-2.184562 -1.47171,-2.974071 -0.98114,-0.797174 -2.62914,-1.402719 -4.93634,-1.824301 l -7.05192,-1.287742 c -4.01653,-0.724355 -6.99827,-2.107911 -8.93755,-4.154501 -1.94311,-2.054255 -2.91275,-4.832865 -2.91275,-8.339663 0,-2.606145 0.66687,-4.94401 2.00827,-7.02126 1.34906,-2.073418 3.296,-3.717589 5.84083,-4.936344 2.54482,-1.214924 5.58788,-1.824302 9.13683,-1.824302 3.84023,0 7.13624,0.655369 9.88802,1.962274 2.75945,1.29924 4.84437,3.104378 6.25475,5.411582 1.41038,2.311037 2.11558,4.978503 2.11558,8.002397 H 237.5352 c 0,-1.785975 -0.72819,-3.299839 -2.1769,-4.537757 -1.45254,-1.245584 -3.39565,-1.870292 -5.8255,-1.870292 -2.13857,0 -3.79424,0.459908 -4.967,1.379723 -1.1766,0.919816 -1.76298,2.065753 -1.76298,3.433979 0,1.157435 0.39092,2.04659 1.18043,2.667466 0.79717,0.61321 2.21522,1.115276 4.26181,1.502365 l 7.05192,1.272412 c 4.4841,0.820169 7.74178,2.253549 9.76538,4.307804 2.03126,2.04659 3.05072,4.99 3.05072,8.830231 0,2.606145 -0.68603,4.9593398 -2.05425,7.0519206 -1.37206,2.0964133 -3.39949,3.7405839 -6.08612,4.9363444 -2.69046,1.19576046 -5.95581,1.79364069 -9.79604,1.79364069 z M 264.19453,2.0867095e-4 h -9.6734 V -32.68391 h 9.6734 z M 264.45514,-37.420961 h -10.1333 v -8.400984 h 10.1333 z m 22.54698,50.88114 c -3.70992,0 -6.75298,-0.697527 -9.1215,-2.084916 -2.37236,-1.391221 -4.09318,-3.0468894 -5.1663,-4.9670047 -1.06545,-1.9239479 -1.62118,-3.7175886 -1.671,-5.3809221 h 9.87269 c 0.21462,1.0194625 0.8125,1.9546085 1.79364,2.805438 0.98114,0.8584947 2.41068,1.2877421 4.29247,1.2877421 2.0121,0 3.61795,-0.5902151 4.81371,-1.7629802 1.19576,-1.1765976 1.79364,-2.74411694 1.79364,-4.7063905 v -3.8478958 h -0.32194 c -0.68603,0.7780108 -1.77831,1.4793703 -3.28067,2.1002459 -1.49471,0.6132105 -3.15421,0.9198157 -4.98234,0.9198157 -2.78244,0 -5.29661,-0.6592012 -7.54249,-1.9776038 -2.23822,-1.3260677 -4.0012,-3.1771969 -5.28894,-5.5495549 -1.28008,-2.3685257 -1.91628,-5.0513217 -1.91628,-8.0483877 0,-2.981736 0.6362,-5.660699 1.91628,-8.033057 1.28774,-2.368526 3.05072,-4.219655 5.28894,-5.549555 2.24588,-1.326068 4.76005,-1.992934 7.54249,-1.992934 3.84023,0 6.82963,1.283909 8.9682,3.847895 h 0.32194 l 0.64387,-3.204024 h 8.32433 v 31.3963766 c 0,4.4841018 -1.44104,8.063718 -4.32313,10.7311836 -2.88209,2.6751308 -6.86796,4.0165288 -11.95761,4.0165288 z m -0.18396,-24.099172 c 1.92012,0 3.52979,-0.666867 4.82903,-2.008265 1.30691,-1.349063 1.96228,-3.050722 1.96228,-5.104977 0,-2.042757 -0.65537,-3.729086 -1.96228,-5.058987 -1.29924,-1.326067 -2.90891,-1.992934 -4.82903,-1.992934 -1.92395,0 -3.53746,0.666867 -4.84436,1.992934 -1.29924,1.329901 -1.94695,3.01623 -1.94695,5.058987 0,2.054255 0.64771,3.755914 1.94695,5.104977 1.3069,1.341398 2.92041,2.008265 4.84436,2.008265 z M 310.97482,2.0867095e-4 V -32.68391 h 8.32433 l 0.64387,2.882089 h 0.32194 c 0.76651,-0.889155 1.92395,-1.693994 3.47997,-2.422182 1.56369,-0.735852 3.45697,-1.103778 5.68753,-1.103778 2.472,0 4.67956,0.567219 6.62267,1.701659 1.93928,1.134439 3.45697,2.740284 4.55309,4.813702 1.09228,2.065753 1.64034,4.468771 1.64034,7.205223 V 2.0867095e-4 h -9.68873 V -18.012849 c 0,-1.785976 -0.54806,-3.250016 -1.64034,-4.384455 -1.08461,-1.13444 -2.52183,-1.70166 -4.3078,-1.70166 -1.80131,0 -3.24618,0.56722 -4.33847,1.70166 -1.08461,1.134439 -1.625,2.598479 -1.625,4.384455 V 2.0867095e-4 Z M 370.75518,-13.781697 h -22.10624 v -8.968204 h 22.10624 z m 27.23038,14.42577669 c -4.01653,0 -7.69196,-0.98880192 -11.02246,-2.97407089 -3.33433,-1.9929341 -5.95964,-4.737051 -7.87976,-8.2323508 -1.92394,-3.502965 -2.88209,-7.458173 -2.88209,-11.865623 0,-4.403618 0.95815,-8.354993 2.88209,-11.850293 1.92012,-3.502965 4.54543,-6.247082 7.87976,-8.232351 3.3305,-1.992934 7.00593,-2.989401 11.02246,-2.989401 4.01653,0 7.68812,0.996467 11.02246,2.989401 3.3305,1.985269 5.9558,4.729386 7.87975,8.232351 1.93161,3.4953 2.89742,7.446675 2.89742,11.850293 0,4.40745 -0.96581,8.362658 -2.89742,11.865623 -1.92395,3.4952998 -4.54925,6.2394167 -7.87975,8.2323508 -3.33434,1.98526897 -7.00593,2.97407089 -11.02246,2.97407089 z m 0,-9.93400999 c 2.13474,0 4.07785,-0.5403917 5.8255,-1.6250077 1.75531,-1.092281 3.14653,-2.62914 4.16983,-4.614409 1.03096,-1.992934 1.54835,-4.292473 1.54835,-6.898618 0,-2.606145 -0.51739,-4.898019 -1.54835,-6.883288 -1.0233,-1.992934 -2.41452,-3.529793 -4.16983,-4.614409 -1.74765,-1.092281 -3.69076,-1.640338 -5.8255,-1.640338 -2.13857,0 -4.07785,0.548057 -5.8255,1.640338 -1.74765,1.084616 -3.13887,2.621475 -4.16983,4.614409 -1.0233,1.985269 -1.53303,4.277143 -1.53303,6.883288 0,2.606145 0.50973,4.905684 1.53303,6.898618 1.03096,1.985269 2.42218,3.522128 4.16983,4.614409 1.74765,1.084616 3.68693,1.6250077 5.8255,1.6250077 z M 426.18557,2.0867095e-4 V -32.68391 h 8.32434 l 0.64387,2.882089 h 0.32193 c 0.76652,-0.889155 1.92395,-1.693994 3.47997,-2.422182 1.56369,-0.735852 3.45698,-1.103778 5.68753,-1.103778 2.47201,0 4.67956,0.567219 6.62267,1.701659 1.93928,1.134439 3.45698,2.740284 4.55309,4.813702 1.09228,2.065753 1.64034,4.468771 1.64034,7.205223 V 2.0867095e-4 h -9.68873 V -18.012849 c 0,-1.785976 -0.54805,-3.250016 -1.64033,-4.384455 -1.08462,-1.13444 -2.52183,-1.70166 -4.30781,-1.70166 -1.8013,0 -3.24618,0.56722 -4.33846,1.70166 -1.08462,1.134439 -1.62501,2.598479 -1.62501,4.384455 V 2.0867095e-4 Z m 0,0"
         style="fill:#1f438c;fill-opacity:1;fill-rule:nonzero;stroke:none"
         aria-label="Single Sign-On"
         transform="matrix(1.0192259,0,0,1.0192259,7559.5425,640.26789)" />
    </g>
    <path
       id="path69"
       d="m 573.64899,35.214001 c -0.92298,5.106998 -3.03302,17.836002 -4.69001,28.285999 -4.419,27.871002 -8.85101,55.221 -9.96698,61.5 -0.53698,3.02499 -2.35199,14.27499 -4.031,25 -5.31702,33.944 -6.05298,38.46201 -6.54102,40.125 -0.31799,1.08701 -2.53698,2.021 -6.698,2.81799 -17.75701,3.401 -50.725,11.767 -59.22198,15.02701 -1.10001,0.422 -5.14999,1.75701 -9,2.967 -9.207,2.893 -20.561,6.94999 -22.73599,8.125 -0.95499,0.516 -2.64301,0.938 -3.75,0.938 -1.107,0 -2.01401,0.45 -2.01401,1 0,0.55 -1.215,1 -2.70001,1 -2.13101,0 -2.44199,0.258 -1.47501,1.22501 0.96698,0.96701 1.63901,0.96699 3.18601,0 C 445.09,222.55101 446.65997,222 447.5,222 c 0.84003,0 2.30899,-0.411 3.26401,-0.914 2.30301,-1.21201 19.36999,-6.431 31.23599,-9.552 19.23801,-5.05901 47.29602,-10.76101 60.25,-12.245 5.63202,-0.644 5.43402,-1.62199 2.78802,13.786 -1.07897,6.28399 -2.42199,14.125 -2.984,17.425 -0.92902,5.453 -7.542,46.66101 -10.03003,62.5 -6.42603,40.90399 -13.84998,87.47299 -15.026,94.25 -0.54902,3.16199 -1.44501,8.33701 -1.99103,11.5 -0.54602,3.16199 -2.14899,13.17499 -3.56101,22.25 -4.56601,29.33398 -5.33401,34.246 -7.89599,50.5 -1.38599,8.79999 -2.95999,18.47501 -3.49701,21.5 -0.72269,4.16037 -1.40698,8.32703 -2.05295,12.5 -0.64529,4.17163 -1.32129,8.33832 -2.02802,12.5 -1.319,7.62701 -5.09698,31.26801 -10.46798,65.5 -4.85901,30.96997 -8.92801,56.39398 -10.52399,65.75 l -1.95801,11.5 c -0.53799,3.16302 -1.87399,11.375 -2.96798,18.25 -1.32645,8.33405 -2.65747,16.66742 -3.99302,25 -1.10199,6.875 -2.686,17 -3.51901,22.5 -3.056,20.159 -7.50299,48.146 -8.501,53.5 -1.23801,6.63898 -7.28,43.66199 -9.95499,61 -5.28101,34.224 -10.34699,66.32703 -11.59799,73.5 -1.874,10.73999 -2.22202,12.836 -3.48401,21 -0.64755,4.17175 -1.32657,8.33844 -2.03699,12.5 -0.96399,5.54797 -5.03601,31.09698 -8.92599,56 -3.03901,19.455 -4.478,28.45 -9.043,56.5 -7.66501,47.093 -8.79001,54.101 -14.53601,90.5 -6.01001,38.0761 -8.529,53.812 -9.443,59 -0.53299,3.025 -1.89999,11.1071 -3.03799,17.9611 -1.138,6.854 -2.233,12.624 -2.43201,12.823 -0.84,0.8399 -37.66501,-19.371 -47.229,-25.9211 C 330.021,1213.2881 327.901,1212 327.608,1212 c -2.22101,0 -55.155,-38.79 -58.608,-42.948 -0.27499,-0.331 -5.22501,-4.71 -11,-9.73 -19.054,-16.5649 -45.756,-44.6319 -63.571,-66.822 -17.171,-21.387 -34.45,-46.348 -46.727,-67.5 -9.874,-17.011 -21.613,-39.69702 -26.90801,-51.99799 -1.0799,-2.50915 -2.18057,-5.00915 -3.302,-7.5 -6.675,-14.65899 -19.198998,-49.44799 -23.503999,-65.28698 C 92.834816,895.97278 91.667488,891.73444 90.485992,887.5 86.80999,874.41699 81.911995,851.08099 78.940994,832.5 71.143997,783.74103 70.081993,728.17401 76.025993,680 86.919991,591.70001 118.73599,506.64999 167.81299,434.63699 c 13.931,-20.44101 26.51401,-36.52798 44.97101,-57.49301 8.772,-9.96499 10.18899,-12.793 3.23599,-6.45801 -6.22701,5.67402 -33.52001,36.219 -40.92301,45.79999 -23.061,29.84201 -37.23199,50.17801 -48.094,69.01401 -1.77424,3.05649 -3.55957,6.10648 -5.356,9.14999 -7.877,13.361 -22.736,42.36103 -29.641998,57.84998 -1.225998,2.75 -3.304001,7.37598 -4.616997,10.28003 C 86.074989,565.68402 85,568.50201 85,569.04303 c 0,0.54102 -0.445,1.76599 -0.987999,2.72101 -2.558998,4.49701 -16.069,43.039 -19.584999,55.87201 -8.739998,31.901 -15.070999,62.17401 -18.375999,87.86401 -6.314,49.08502 -5.994,101.83301 0.901,148.5 7.112999,48.14099 19.474999,91.65399 38.551003,135.69702 2.499001,5.76902 19.083004,38.99202 22.864994,45.80302 6.67,12.015 8.031,14.246 17.363,28.473 22.50301,34.303 41.724,57.825 70.704,86.527 44.31799,43.891 95.98001,79.362 152.065,104.406 6.60001,2.9471 13.91101,6.209 16.24701,7.25 2.336,1.0401 5.37299,2.319 6.75,2.8431 2.83301,1.077 3.05301,2.707 1.49701,11.0839 -0.55399,2.979 -3.02899,18.017 -5.50101,33.417 -2.47201,15.4001 -4.92599,30.475 -5.45401,33.5 -0.68881,3.995 -1.34717,7.995 -1.975,12 -1.13788,7.1697 -2.29456,14.3363 -3.47001,21.5 -1.35101,8.25 -3.64401,22.6501 -5.096,32 -1.45301,9.35 -4.19001,26.6751 -6.085,38.5 -7.73599,48.296 -7.45901,46.599 -10.39898,63.75 -0.54199,3.162 -2.315,14.3001 -3.94,24.75 -7.54001,48.485 -10.21302,65.3361 -11.02701,69.5 -0.483,2.475 -1.38401,7.875 -2.00202,12 -0.6774,4.506 -1.39139,9.006 -2.142,13.5 -4.703,27.6851 -6.74899,42.054 -6.083,42.72 1.36999,1.37 23.475,6.524 37.67099,8.783 92.64801,14.743 184.89099,1.9449 264.34204,-36.6761 32.75598,-15.922 65.25702,-36.879 87.35498,-56.327 l 2.84003,-2.5 -5.01502,-64.5 c -5.02502,-64.626 -8.04901,-102.623 -10.02899,-126 -2.01398,-23.7779 -2.89697,-34.559 -3.974,-48.5 -0.59497,-7.6999 -1.50403,-18.725 -2.02002,-24.5 -0.54047,-6.0599 -1.0658,-12.1213 -1.57599,-18.184 l -0.63702,-7.6839 3.862,-0.688 c 2.12298,-0.379 9.48602,-1.769 16.36102,-3.09 11.42902,-2.1949 17.29797,-3.4709 30,-6.5229 7.03497,-1.69 31.01898,-8.567 35.91699,-10.299 6.54303,-2.313 7.42298,-1.639 9.44397,7.221 0.97101,4.261 6.651,27.547 12.62201,51.7469 5.96997,24.2 13.86701,56.375 17.54797,71.5 8.61902,35.414 10.745,43.1071 11.969,43.323 0.91699,0.162 22.71301,-31.547 25.65503,-37.323 0.70001,-1.375 2.02399,-3.625 2.94201,-5 0.91803,-1.375 2.56299,-4.0749 3.65601,-6 1.09302,-1.925 5.39697,-9.482 9.565,-16.7939 16.30103,-28.595 40.19501,-78.8631 51.19599,-107.7061 1.46801,-3.8499 3.03698,-7.9 3.48498,-9 3.42401,-8.402 16.98102,-48.5639 19.57801,-58 8.00402,-29.081 16.46197,-66.363 20.15899,-88.8609 l 0.96399,-5.861 -16.03802,-23.639 c -8.82099,-13.002 -18.21003,-26.789 -20.86499,-30.6391 -6.19501,-8.985 -18.18,-26.588 -36.08301,-53 -7.57819,-11.1818 -15.1789,-22.34843 -22.802,-33.49998 -14.53003,-21.203 -40.112,-58.79498 -46.18702,-67.87097 -3.17602,-4.74597 -6.32598,-9.34003 -7,-10.20801 -0.78418,-1.02508 -1.52581,-2.08008 -2.22497,-3.16498 -0.54999,-0.87298 -5.10797,-7.58697 -10.12903,-14.92102 -12.76703,-18.64801 -43.125,-63.27301 -67.37598,-99.04199 -11.27197,-16.625 -24.32,-35.80298 -28.99499,-42.617 -33.47998,-48.79602 -41.23499,-60.357 -41.71301,-62.185 -0.237,-0.90601 3.94098,-8.80597 9.29101,-17.56903 5.34699,-8.75702 11.61102,-19.07202 13.91901,-22.922 2.30798,-3.84997 6.57599,-10.82501 9.48401,-15.5 2.90698,-4.67499 6.17901,-10.07501 7.27002,-12 1.091,-1.92499 2.75799,-4.625 3.70501,-6 0.94703,-1.375 6.46003,-10.375 12.25,-20 5.79102,-9.625 13.573,-22.45001 17.29303,-28.5 3.72101,-6.04999 7.55402,-12.34997 8.51703,-14 4.146,-7.10199 15.18799,-24.97699 17.00403,-27.52801 1.08899,-1.52899 1.97998,-3.00202 1.97998,-3.27198 0,-0.66803 18.97302,-31.958 20.10101,-33.14999 0.49402,-0.52301 0.89899,-1.63 0.89899,-2.45999 0,-1.20599 -12.58502,-36.314 -15.98401,-44.59 -0.45099,-1.1 -1.76501,-4.58801 -2.919,-7.75 l -4.19397,-11.5 c -1.154,-3.16299 -2.482,-6.64999 -2.95203,-7.75 -0.81097,-1.90201 -6.44598,-17.13501 -14.427,-39 -2.13526,-5.84564 -4.30359,-11.67898 -6.50501,-17.5 -1.57,-4.125 -4.50702,-12 -6.526,-17.5 -2.01898,-5.5 -4.03699,-10.89999 -4.48498,-12 -0.44702,-1.1 -1.80103,-4.70001 -3.008,-8 -4.59003,-12.544 -5.62799,-14.876 -6.797,-15.26599 -0.66198,-0.22 -1.20202,0.42401 -1.20098,1.43302 0.002,1.522 -3.76301,19.37298 -8.03199,38.083 -0.53399,2.33701 -1.38897,6.163 -1.90002,8.5 -0.51203,2.33701 -1.39301,6.275 -1.95899,8.75 -0.56598,2.47501 -1.966,9 -3.11102,14.5 -1.14502,5.5 -2.518,11.79999 -3.052,14 -0.534,2.20002 -2.52197,11.42499 -4.41803,20.5 -1.89502,9.07502 -4.14801,19.65 -5.00702,23.5 -0.85901,3.85001 -2.04797,9.25 -2.64301,12 -0.61401,2.83609 -1.24066,5.66935 -1.88,8.49982 -0.63635,2.82916 -1.25366,5.66251 -1.85199,8.5 -0.58002,2.75 -1.93799,9.04999 -3.01898,14 -1.55152,7.16074 -3.0755,14.32742 -4.57202,21.5 -1.43402,6.875 -3.03998,14.29999 -3.56897,16.5 -0.52899,2.20001 -2.10303,9.40002 -3.49903,16 -1.39599,6.59998 -2.97699,13.91302 -3.513,16.25 -1.33075,5.8269 -2.63275,11.66022 -3.906,17.5 -0.51203,2.33698 -1.39301,6.27502 -1.95899,8.75 -0.56598,2.47498 -1.93402,8.77502 -3.03998,14 -4.497,21.25201 -9.32897,43.87701 -10.67797,50 -2.12702,9.659 -3.48297,15.97302 -4.50098,20.95898 -0.84998,4.167 -2.36798,6.96802 -3.23798,5.974 -0.20898,-0.23797 -1.578,-15.73297 -3.044,-34.43298 -1.46601,-18.70001 -3.11402,-39.40002 -3.664,-46 -0.54999,-6.59998 -1.41999,-17.17499 -1.93299,-23.5 -0.92401,-11.38501 -2.17602,-26.74902 -3.99103,-49 -0.84301,-10.32501 -9.65502,-122.28 -12.01501,-152.634 -0.80566,-10.16904 -1.64032,-20.33573 -2.50403,-30.5 -0.86053,-10.11991 -1.69824,-20.24192 -2.513,-30.366 -0.52301,-6.60001 -1.43103,-17.85001 -2.01703,-25 -0.586,-7.14999 -1.47601,-18.175 -1.97802,-24.5 -0.69117,-8.66762 -1.39417,-17.33429 -2.10901,-26 -0.659,-7.97501 -1.23999,-16.74001 -1.292,-19.47701 -0.09,-4.746 0.045,-5.007 2.90601,-5.632 5.703,-1.244 53.96802,-0.837 71.5,0.60401 40.13098,3.298 78.21698,9.94299 110,19.192 12.65698,3.683 45.13098,14.50799 48,16 1.375,0.716 2.87701,1.30299 3.33801,1.307 1.78302,0.013 25.95801,10.629 42.16199,18.515 14.15302,6.888 29.55603,15.094 36.5,19.44699 0.82501,0.517 4.65002,2.84201 8.5,5.16599 16.49799,9.95901 42.33899,27.923 54.487,37.87799 13.784,11.29501 18.59302,15.41699 28.513,24.43799 17.676,16.07501 17.973,16.36899 32.423,32.06201 33.454,36.33301 55.703,66.89099 79.724,109.5 5.2779,9.36099 21.353,41.358 21.353,42.50198 0,0.24597 1.273,3.27198 2.83,6.72303 1.556,3.45098 4.2989,10.09997 6.0949,14.77502 1.7961,4.67505 3.647,9.40002 4.1131,10.5 0.466,1.09998 2.4759,6.72498 4.467,12.5 1.9911,5.77502 4.035,11.625 4.544,13 1.1259,3.04303 7.852,27.13397 8.9339,32 0.9769,4.33594 1.9646,8.66925 2.963,13 2.897,12.59302 4.183,19.12299 7.033,35.69098 7.182,41.768 8.53,98.66998 3.484,147.12298 -4.116,39.52601 -16.412,93.11701 -28.954,126.18598 -0.938,2.47497 -3.055,8.09997 -4.703,12.5 -1.6479,4.40002 -3.391,8.90002 -3.8719,10 -0.4821,1.09997 -2.903,6.80701 -5.38,12.68201 -12.079,28.64898 -30.1031,61.13495 -50.37,90.78305 -5.815,8.506 -11.135,16.156 -11.8221,17 -4.56,5.598 -10.362,14.0019 -10.362,15.01 0,0.66 2.354,-1.652 5.232,-5.138 2.877,-3.4849 5.484,-6.562 5.793,-6.837 2.4659,-2.193 24.559,-32.8409 33.693,-46.739 19.1,-29.062 33.03,-54.30104 46.328,-83.93703 2.9999,-6.69232 6.0088,-13.37994 9.027,-20.06298 1.06,-2.33197 1.927,-4.844 1.927,-5.58301 0,-0.73999 0.2989,-1.64301 0.6639,-2.008 1.07,-1.07098 13.5081,-36.73797 18.1961,-52.17901 6.555,-21.59101 15.1679,-63.25098 18.088,-87.49097 0.563,-4.67499 1.4649,-12.09998 2.005,-16.5 0.54,-4.40002 1.522,-18.65198 2.186,-31.67102 2.132,-41.85803 -1.657,-88.93402 -10.6109,-131.82898 -9.486,-45.44397 -22.2481,-82.86597 -42.1181,-123.5 -3.496,-7.14999 -7.983,-15.92499 -9.972,-19.5 -1.989,-3.57501 -4.8631,-8.75 -6.387,-11.5 -2.92,-5.267 -12.1219,-20.32501 -14.909,-24.39899 -1.056,-1.54648 -2.1033,-3.09881 -3.142,-4.65701 -10.906,-16.41901 -25.864,-36.07999 -40.5,-53.23199 -9.838,-11.53 -45.1131,-46.064 -58,-56.78299 -21.71804,-18.064 -45.31405,-34.67701 -70.50002,-49.637 -11.98499,-7.119 -44.48401,-23.79199 -56,-28.729 -3.29645,-1.41455 -6.58844,-2.83956 -9.87598,-4.275 -10.909,-4.77799 -46.16498,-17.205 -57.62402,-20.31199 -40.232,-10.907 -68.92401,-16.30501 -110,-20.694 -17.96002,-1.91901 -87.638,-1.627 -107,0.448 -8.25,0.884 -15.328,1.293 -15.72901,0.91 -0.62201,-0.595 -3.66601,-36.069 -7.77801,-90.639999 -0.58002,-7.699997 -1.45899,-18.949997 -1.95203,-25 -0.49304,-6.050004 -1.43799,-17.75 -2.10101,-26 -0.66199,-8.25 -1.521,-15.354001 -1.90802,-15.786 -0.388,-0.433 -1.46002,3.392 -2.383,8.5 M 435,225 c 0,0.55 0.67499,1 1.5,1 0.82501,0 1.5,-0.45 1.5,-1 0,-0.55 -0.67499,-1 -1.5,-1 -0.82501,0 -1.5,0.45 -1.5,1 m -4.5,2 c -0.34,0.55 -0.14099,1 0.44101,1 0.582,0 1.05899,-0.45 1.05899,-1 0,-0.55 -0.198,-1 -0.44101,-1 -0.24301,0 -0.71899,0.45 -1.05899,1 M 222.506,363.99399 c -0.999,1.10299 -1.489,2.00601 -1.09,2.00601 1.05499,0 3.905,-3.01199 3.364,-3.55399 -0.25301,-0.25201 -1.276,0.444 -2.274,1.54801 M 634,742.39099 c 0,3.04498 0.43298,9.94098 0.96198,15.323 0.52899,5.38202 1.42297,15.63599 1.98699,22.78601 2.11902,26.86499 3.11902,39.33301 4.05103,50.5 0.52802,6.32501 1.42798,17.34998 2,24.5 0.65771,8.16852 1.3374,16.33521 2.039,24.5 0.54901,6.32501 2.78601,34.90002 4.97101,63.5 3.81897,49.98303 5.87402,75.859 7.97998,100.5 0.54102,6.325 1.45398,17.575 2.02899,25 0.57501,7.4251 1.47199,18.6751 1.99298,25 0.521,6.325 1.41602,17.35 1.98798,24.5 0.57196,7.15 1.48199,18.1751 2.02197,24.5 1.43201,16.798 5.68598,70.306 7.47199,94 2.414,32.026 4.66699,58.468 5.01202,58.827 0.75201,0.781 41.26703,-5.03 54.99402,-7.8879 13.95203,-2.905 30.46197,-6.893 33.83197,-8.174 2.58502,-0.982 2.776,-1.39 2.19,-4.67 -0.354,-1.9771 -1.05401,-4.9449 -1.55603,-6.595 -0.50201,-1.65 -2.294,-8.8499 -3.98102,-16 -3.15899,-13.39 -4.07098,-17.123 -5.86102,-24 -0.573,-2.1999 -2.43402,-9.8499 -4.13501,-17 -1.70099,-7.15 -3.31,-13.9 -3.57501,-15 -0.26502,-1.0999 -1.60999,-6.275 -2.98999,-11.5 -1.37903,-5.2249 -2.90003,-11.3 -3.37799,-13.5 -0.98603,-4.529 -3.64899,-15.259 -5.08698,-20.5 -0.52801,-1.925 -2.78698,-11.15 -5.01898,-20.5 -2.23199,-9.3499 -8.55499,-35.2249 -14.04901,-57.5 -5.99994,-24.3336 -11.98932,-48.667 -17.96802,-73 -4.388,-17.87498 -8.39899,-34.07499 -8.914,-35.99998 -0.51501,-1.92499 -4.33398,-17.45001 -8.48798,-34.5 -4.15399,-17.04999 -7.984,-32.57501 -8.51098,-34.5 -0.52802,-1.92499 -3.24799,-12.95001 -6.04499,-24.5 -2.79699,-11.54999 -9.307,-38.09997 -14.466,-59 -5.15997,-20.90002 -11.354,-46.09997 -13.76599,-56 -3.36401,-13.81201 -4.77399,-18.07501 -6.05902,-18.323 -1.40302,-0.27099 -1.67401,0.573 -1.67401,5.21399 m 353.68103,434.87899 c -0.70697,19.6181 -2.58801,32.2481 -8.599,57.73 -5.39002,22.8521 -9.02802,34.83 -21.10999,69.5 -3.81701,10.953 -16.87597,43.2591 -21.56097,53.339 -1.87598,4.037 -3.41101,7.5341 -3.41101,7.772 0,0.2379 -4.82001,10.2099 -10.71198,22.161 -11.22998,22.7791 -17.66601,34.903 -24.92999,46.9611 -2.39697,3.978 -4.35797,7.4969 -4.35797,7.8199 0,0.323 -1.34998,2.549 -3,4.947 -1.65002,2.3981 -3,4.638 -3,4.9781 0,0.34 -3.375,5.7929 -7.5,12.119 -4.125,6.327 -7.5,11.693 -7.5,11.9239 0,0.434 -11.612,17.641 -15.50702,22.979 -2.73999,3.756 -22.12402,29.617 -25.49298,34.012 -39.638,51.713 -93.31897,101.699 -147,136.88 -21.25098,13.927 -56.03101,32.4549 -78,41.552 -5.77502,2.391 -11.84998,4.936 -13.5,5.655 -3.66199,1.595 -28.55701,9.9621 -37.5,12.6021 -21.59399,6.375 -37.01202,9.754 -60.5,13.258 -31.84201,4.751 -36.401,5.043 -77.5,4.98 -38.29999,-0.06 -40.229,-0.157 -63.5,-3.194 -28.19699,-3.6789 -57.85599,-9.008 -71.75,-12.891 -1.22299,-0.342 -1.75,0.082 -1.75,1.407 0,7.147 27.345,33.281 52,49.6971 9.83099,6.546 33.99899,18.802 44.5,22.567 3.29999,1.183 8.47501,3.0699 11.5,4.193 3.02499,1.123 6.85001,2.405 8.5,2.848 1.64999,0.443 7.04999,1.951 12,3.35 10.69699,3.024 37.24399,8.9909 46.75,10.5069 40.84399,6.515 55.17599,7.568 102.75,7.546 39.01697,-0.018 47.82501,-0.421 76.5,-3.499 41.276,-4.431 87.08502,-13.0389 125,-23.489 3.29999,-0.91 7.34998,-2.0229 9,-2.474 9.49701,-2.597 50.83698,-16.052 55,-17.902 1.09998,-0.489 7.40002,-3.03 14,-5.6479 6.59998,-2.6179 14.33398,-5.817 17.18597,-7.109 2.85199,-1.292 5.40802,-2.3481 5.68,-2.3481 1.75,0 42.22497,-19.654 54.63397,-26.529 20.18402,-11.183 27.27502,-15.351 36.823,-21.6441 4.02801,-2.655 7.51599,-4.827 7.75097,-4.827 0.94599,0 20.82099,-14.074 34.92603,-24.732 18.91196,-14.292 24.15996,-18.569 41.73296,-34.018 3.637,-3.198 5.666,-4.25 8.195,-4.25 4.8239,0 15.4489,3.492 23.3039,7.6601 7.6121,4.0379 26.298,16.394 36.5711,24.182 3.7419,2.837 7.17,5.1579 7.618,5.1579 0.448,0 1.073,-1.687 1.387,-3.75 0.3139,-2.063 1.6899,-9.842 3.0579,-17.2879 13.037,-70.963 10.6071,-160.902 -6.336,-234.4621 -3.156,-13.704 -6.407,-26.576 -10.9871,-43.5 -10.5379,-38.938 -30.9659,-92.29 -51.103,-133.462 -8.631,-17.647 -23.634,-45.718 -27.094,-50.692 -1.015,-1.46 -1.846,-2.871 -1.846,-3.136 0,-1.724 -23.97602,-38.905 -28.33503,-43.94 l -2.36401,-2.7299 z M 1046,1697.811 c -1.925,1.017 -11.395,7.054 -21.045,13.4151 -16.9311,11.162 -37.52806,23.812 -48.95506,30.068 -3.02503,1.656 -6.69403,3.843 -8.15399,4.859 -1.45996,1.016 -2.83802,1.847 -3.06201,1.847 -0.22498,0 -6.49201,3.296 -13.92701,7.324 -12.27502,6.651 -50.22699,25.676 -51.21801,25.676 -0.22699,0 -4.71601,2.025 -9.97699,4.5 -5.26099,2.475 -9.80103,4.5 -10.08899,4.5 -0.28797,0 -3.34699,1.282 -6.79798,2.849 -3.45099,1.567 -13.02502,5.438 -21.27502,8.6021 -8.25,3.164 -15.90003,6.146 -17,6.624 -8.73901,3.804 -52.72199,17.493 -72,22.41 -62.948,16.052 -108.03699,22.204 -170.27698,23.229 -49.36798,0.814 -87.393,-1.917 -130.22302,-9.352 -4.49918,-0.7816 -8.99918,-1.5587 -13.5,-2.3311 -4.996,-0.855 -7.259,-1.313 -15.25,-3.087 -8.34,-1.8521 -12.927,-2.913 -26.047,-6.027 -7.31399,-1.735 -13.56601,-2.8879 -13.893,-2.56 -1.224,1.224 1.78399,3.307 6.71798,4.651 2.80399,0.7629 5.32199,1.749 5.594,2.1899 0.272,0.4409 1.376,0.802 2.45099,0.802 1.07498,0 2.73599,0.41 3.69101,0.911 3.60501,1.892 27.37399,8.2741 48.73599,13.087 10.64001,2.397 31.741,5.7811 49.5,7.939 48.36301,5.877 120.6,5.679 174.99997,-0.48 16.935,-1.917 38.83697,-4.937 50.25,-6.93 4.81299,-0.84 12.46197,-2.179 17,-2.976 4.53802,-0.797 15.67499,-3.035 24.75,-4.974 41.09497,-8.779 56.77801,-12.7149 88,-22.083 8.52502,-2.558 16.84997,-5.008 18.5,-5.4449 5.401,-1.429 20.83502,-6.767 29,-10.0301 7.73199,-3.0899 9.71002,-3.953 23.27502,-10.151 3.45099,-1.578 6.51898,-2.868 6.81702,-2.868 0.68701,0 62.55998,-30.955 63.90798,-31.973 0.886,-0.669 21.3501,-11.776 35.0001,-18.996 7.137,-3.776 22.0551,-9.588 28.5,-11.104 12.691,-2.986 27.892,-1.157 43.3471,5.2159 5.083,2.096 7.311,2.59 8.0849,1.793 1.343,-1.384 -4.579,-6.8979 -19.129,-17.808 -26.6081,-19.951 -46.827,-28.3249 -56.303,-23.317 m 28.892,56.543 c -3.084,1.269 -7.1341,3.249 -9,4.401 -4.7691,2.943 -44.565,22.6899 -55.392,27.4859 -14.81598,6.5621 -35.38599,15.2321 -45.5,19.178 -5.22498,2.038 -10.40002,4.091 -11.5,4.5611 -2.72302,1.165 -21.68597,8.03 -34.5,12.489 -5.77502,2.01 -11.625,4.047 -13,4.5279 -1.375,0.481 -7.22498,2.282 -13,4.0031 -5.77502,1.721 -11.625,3.532 -13,4.024 -10.35797,3.7071 -67.01099,18.424 -84.30103,21.8991 L 778.5,1860.38 c -7.15002,1.437 -15.70001,3.098 -19,3.692 -3.29999,0.594 -8.02502,1.4831 -10.5,1.9771 -9.07599,1.811 -38.995,5.956 -57,7.8969 -33.57001,3.617 -61.05402,5.054 -96.68799,5.054 -52.77099,0 -88.51599,-3.194 -133.81201,-11.958 -2.20001,-0.4251 -4.742,-1.09 -5.64899,-1.476 -2.044,-0.8709 -3.27899,0.844 -1.58999,2.208 0.681,0.5501 5.514,2.158 10.73901,3.5721 76.85098,20.8029 186.26999,25.469 294.99997,12.5799 24.13397,-2.8609 41.69397,-5.473 60,-8.926 2.47498,-0.467 7.42499,-1.363 11,-1.991 3.57501,-0.6279 8.29999,-1.5529 10.5,-2.0539 2.20001,-0.502 11.65002,-2.5191 21,-4.4831 21.70703,-4.56 44.659,-9.9809 61,-14.4069 9.88702,-2.678 39.80103,-12.135 41,-12.963 0.54999,-0.3791 3.47498,-1.517 6.5,-2.5291 3.02502,-1.0121 6.84998,-2.397 8.5,-3.079 16.34399,-6.748 44.733,-19.3399 63,-27.943 7.506,-3.536 15.8149,-7.13 29,-12.5439 20.7481,-8.5191 47.32,-14.924 62.191,-14.989 2.3051,-0.01 4.4411,-0.422 4.746,-0.916 1.223,-1.9781 -23.738,-16.131 -36.249,-20.554 -7.166,-2.533 -15.908,-4.563 -19.4871,-4.5241 -1.211,0.013 -4.7249,1.0621 -7.8089,2.33"
       style="fill:#1f438c;fill-opacity:1;fill-rule:evenodd;stroke:none"
       transform="matrix(0.10071536,0,0,0.10071536,7412.7544,474.80773)"
       clip-path="url(#clipPath70)" />
  </g>
</svg>
